G04 #@! TF.GenerationSoftware,KiCad,Pcbnew,5.0.2-bee76a0~70~ubuntu18.04.1*
G04 #@! TF.CreationDate,2019-05-18T20:43:57+03:00*
G04 #@! TF.ProjectId,IOT_Board,494f545f-426f-4617-9264-2e6b69636164,rev?*
G04 #@! TF.SameCoordinates,Original*
G04 #@! TF.FileFunction,Copper,L1,Top*
G04 #@! TF.FilePolarity,Positive*
%FSLAX46Y46*%
G04 Gerber Fmt 4.6, Leading zero omitted, Abs format (unit mm)*
G04 Created by KiCad (PCBNEW 5.0.2-bee76a0~70~ubuntu18.04.1) date Sat 18 May 2019 08:43:57 PM EAT*
%MOMM*%
%LPD*%
G01*
G04 APERTURE LIST*
G04 #@! TA.AperFunction,NonConductor*
%ADD10C,0.150000*%
G04 #@! TD*
G04 #@! TA.AperFunction,ComponentPad*
%ADD11R,1.200000X1.200000*%
G04 #@! TD*
G04 #@! TA.AperFunction,ComponentPad*
%ADD12C,1.200000*%
G04 #@! TD*
G04 #@! TA.AperFunction,ComponentPad*
%ADD13R,1.800000X1.800000*%
G04 #@! TD*
G04 #@! TA.AperFunction,ComponentPad*
%ADD14O,1.800000X1.800000*%
G04 #@! TD*
G04 #@! TA.AperFunction,ComponentPad*
%ADD15C,1.800000*%
G04 #@! TD*
G04 #@! TA.AperFunction,ComponentPad*
%ADD16R,3.500000X3.500000*%
G04 #@! TD*
G04 #@! TA.AperFunction,Conductor*
%ADD17C,0.100000*%
G04 #@! TD*
G04 #@! TA.AperFunction,ComponentPad*
%ADD18C,3.000000*%
G04 #@! TD*
G04 #@! TA.AperFunction,ComponentPad*
%ADD19C,3.500000*%
G04 #@! TD*
G04 #@! TA.AperFunction,ComponentPad*
%ADD20C,2.400000*%
G04 #@! TD*
G04 #@! TA.AperFunction,ComponentPad*
%ADD21R,2.400000X2.400000*%
G04 #@! TD*
G04 #@! TA.AperFunction,ComponentPad*
%ADD22R,0.850000X0.850000*%
G04 #@! TD*
G04 #@! TA.AperFunction,ComponentPad*
%ADD23O,0.850000X0.850000*%
G04 #@! TD*
G04 #@! TA.AperFunction,ComponentPad*
%ADD24O,1.050000X1.500000*%
G04 #@! TD*
G04 #@! TA.AperFunction,ComponentPad*
%ADD25R,1.050000X1.500000*%
G04 #@! TD*
G04 #@! TA.AperFunction,ComponentPad*
%ADD26O,1.400000X1.400000*%
G04 #@! TD*
G04 #@! TA.AperFunction,ComponentPad*
%ADD27C,1.400000*%
G04 #@! TD*
G04 #@! TA.AperFunction,ComponentPad*
%ADD28R,2.500000X4.500000*%
G04 #@! TD*
G04 #@! TA.AperFunction,ComponentPad*
%ADD29O,2.500000X4.500000*%
G04 #@! TD*
G04 #@! TA.AperFunction,ComponentPad*
%ADD30C,2.500000*%
G04 #@! TD*
G04 #@! TA.AperFunction,ComponentPad*
%ADD31C,2.000000*%
G04 #@! TD*
G04 #@! TA.AperFunction,ViaPad*
%ADD32C,0.800000*%
G04 #@! TD*
G04 #@! TA.AperFunction,Conductor*
%ADD33C,0.250000*%
G04 #@! TD*
G04 APERTURE END LIST*
D10*
X70000000Y-50000000D02*
X70000000Y-150000000D01*
X170000000Y-50000000D02*
X70000000Y-50000000D01*
X170000000Y-150000000D02*
X170000000Y-50000000D01*
X70000000Y-150000000D02*
X170000000Y-150000000D01*
D11*
G04 #@! TO.P,Cin1,1*
G04 #@! TO.N,/vcc5v*
X91290000Y-73170000D03*
D12*
G04 #@! TO.P,Cin1,2*
G04 #@! TO.N,GND*
X92790000Y-73170000D03*
G04 #@! TD*
G04 #@! TO.P,Cout1,2*
G04 #@! TO.N,GND*
X92790000Y-78930000D03*
D11*
G04 #@! TO.P,Cout1,1*
G04 #@! TO.N,/vcc3v3*
X91290000Y-78930000D03*
G04 #@! TD*
D13*
G04 #@! TO.P,D1,1*
G04 #@! TO.N,/vcc5v*
X73000000Y-107000000D03*
D14*
G04 #@! TO.P,D1,2*
G04 #@! TO.N,Net-(D1-Pad2)*
X80620000Y-107000000D03*
G04 #@! TD*
D13*
G04 #@! TO.P,D2,1*
G04 #@! TO.N,GND*
X86000000Y-114000000D03*
D15*
G04 #@! TO.P,D2,2*
G04 #@! TO.N,Net-(D2-Pad2)*
X86000000Y-116540000D03*
G04 #@! TD*
D13*
G04 #@! TO.P,D3,1*
G04 #@! TO.N,/vcc5v*
X93000000Y-106500000D03*
D14*
G04 #@! TO.P,D3,2*
G04 #@! TO.N,Net-(D3-Pad2)*
X100620000Y-106500000D03*
G04 #@! TD*
D15*
G04 #@! TO.P,D4,2*
G04 #@! TO.N,Net-(D4-Pad2)*
X106540000Y-116000000D03*
D13*
G04 #@! TO.P,D4,1*
G04 #@! TO.N,GND*
X104000000Y-116000000D03*
G04 #@! TD*
D15*
G04 #@! TO.P,D5,2*
G04 #@! TO.N,/vcc5v*
X73520000Y-74470000D03*
D13*
G04 #@! TO.P,D5,1*
G04 #@! TO.N,Net-(D5-Pad1)*
X76060000Y-74470000D03*
G04 #@! TD*
D14*
G04 #@! TO.P,D6,2*
G04 #@! TO.N,Net-(D6-Pad2)*
X119620000Y-107000000D03*
D13*
G04 #@! TO.P,D6,1*
G04 #@! TO.N,/vcc5v*
X112000000Y-107000000D03*
G04 #@! TD*
G04 #@! TO.P,D7,1*
G04 #@! TO.N,GND*
X123500000Y-116000000D03*
D15*
G04 #@! TO.P,D7,2*
G04 #@! TO.N,Net-(D7-Pad2)*
X126040000Y-116000000D03*
G04 #@! TD*
D14*
G04 #@! TO.P,D8,2*
G04 #@! TO.N,Net-(D8-Pad2)*
X140120000Y-106500000D03*
D13*
G04 #@! TO.P,D8,1*
G04 #@! TO.N,/vcc5v*
X132500000Y-106500000D03*
G04 #@! TD*
G04 #@! TO.P,D9,1*
G04 #@! TO.N,GND*
X143000000Y-115000000D03*
D15*
G04 #@! TO.P,D9,2*
G04 #@! TO.N,Net-(D9-Pad2)*
X145540000Y-115000000D03*
G04 #@! TD*
D13*
G04 #@! TO.P,D10,1*
G04 #@! TO.N,/vcc5v*
X151000000Y-106500000D03*
D14*
G04 #@! TO.P,D10,2*
G04 #@! TO.N,Net-(D10-Pad2)*
X158620000Y-106500000D03*
G04 #@! TD*
D15*
G04 #@! TO.P,D11,2*
G04 #@! TO.N,Net-(D11-Pad2)*
X166540000Y-115500000D03*
D13*
G04 #@! TO.P,D11,1*
G04 #@! TO.N,GND*
X164000000Y-115500000D03*
G04 #@! TD*
D16*
G04 #@! TO.P,DCjack1,1*
G04 #@! TO.N,/vcc5v*
X84040000Y-64620000D03*
D17*
G04 #@! TD*
G04 #@! TO.N,GND*
G04 #@! TO.C,DCjack1*
G36*
X78863513Y-62873611D02*
X78936318Y-62884411D01*
X79007714Y-62902295D01*
X79077013Y-62927090D01*
X79143548Y-62958559D01*
X79206678Y-62996398D01*
X79265795Y-63040242D01*
X79320330Y-63089670D01*
X79369758Y-63144205D01*
X79413602Y-63203322D01*
X79451441Y-63266452D01*
X79482910Y-63332987D01*
X79507705Y-63402286D01*
X79525589Y-63473682D01*
X79536389Y-63546487D01*
X79540000Y-63620000D01*
X79540000Y-65620000D01*
X79536389Y-65693513D01*
X79525589Y-65766318D01*
X79507705Y-65837714D01*
X79482910Y-65907013D01*
X79451441Y-65973548D01*
X79413602Y-66036678D01*
X79369758Y-66095795D01*
X79320330Y-66150330D01*
X79265795Y-66199758D01*
X79206678Y-66243602D01*
X79143548Y-66281441D01*
X79077013Y-66312910D01*
X79007714Y-66337705D01*
X78936318Y-66355589D01*
X78863513Y-66366389D01*
X78790000Y-66370000D01*
X77290000Y-66370000D01*
X77216487Y-66366389D01*
X77143682Y-66355589D01*
X77072286Y-66337705D01*
X77002987Y-66312910D01*
X76936452Y-66281441D01*
X76873322Y-66243602D01*
X76814205Y-66199758D01*
X76759670Y-66150330D01*
X76710242Y-66095795D01*
X76666398Y-66036678D01*
X76628559Y-65973548D01*
X76597090Y-65907013D01*
X76572295Y-65837714D01*
X76554411Y-65766318D01*
X76543611Y-65693513D01*
X76540000Y-65620000D01*
X76540000Y-63620000D01*
X76543611Y-63546487D01*
X76554411Y-63473682D01*
X76572295Y-63402286D01*
X76597090Y-63332987D01*
X76628559Y-63266452D01*
X76666398Y-63203322D01*
X76710242Y-63144205D01*
X76759670Y-63089670D01*
X76814205Y-63040242D01*
X76873322Y-62996398D01*
X76936452Y-62958559D01*
X77002987Y-62927090D01*
X77072286Y-62902295D01*
X77143682Y-62884411D01*
X77216487Y-62873611D01*
X77290000Y-62870000D01*
X78790000Y-62870000D01*
X78863513Y-62873611D01*
X78863513Y-62873611D01*
G37*
D18*
G04 #@! TO.P,DCjack1,2*
G04 #@! TO.N,GND*
X78040000Y-64620000D03*
D17*
G04 #@! TD*
G04 #@! TO.N,GND*
G04 #@! TO.C,DCjack1*
G36*
X82000765Y-67574213D02*
X82085704Y-67586813D01*
X82168999Y-67607677D01*
X82249848Y-67636605D01*
X82327472Y-67673319D01*
X82401124Y-67717464D01*
X82470094Y-67768616D01*
X82533718Y-67826282D01*
X82591384Y-67889906D01*
X82642536Y-67958876D01*
X82686681Y-68032528D01*
X82723395Y-68110152D01*
X82752323Y-68191001D01*
X82773187Y-68274296D01*
X82785787Y-68359235D01*
X82790000Y-68445000D01*
X82790000Y-70195000D01*
X82785787Y-70280765D01*
X82773187Y-70365704D01*
X82752323Y-70448999D01*
X82723395Y-70529848D01*
X82686681Y-70607472D01*
X82642536Y-70681124D01*
X82591384Y-70750094D01*
X82533718Y-70813718D01*
X82470094Y-70871384D01*
X82401124Y-70922536D01*
X82327472Y-70966681D01*
X82249848Y-71003395D01*
X82168999Y-71032323D01*
X82085704Y-71053187D01*
X82000765Y-71065787D01*
X81915000Y-71070000D01*
X80165000Y-71070000D01*
X80079235Y-71065787D01*
X79994296Y-71053187D01*
X79911001Y-71032323D01*
X79830152Y-71003395D01*
X79752528Y-70966681D01*
X79678876Y-70922536D01*
X79609906Y-70871384D01*
X79546282Y-70813718D01*
X79488616Y-70750094D01*
X79437464Y-70681124D01*
X79393319Y-70607472D01*
X79356605Y-70529848D01*
X79327677Y-70448999D01*
X79306813Y-70365704D01*
X79294213Y-70280765D01*
X79290000Y-70195000D01*
X79290000Y-68445000D01*
X79294213Y-68359235D01*
X79306813Y-68274296D01*
X79327677Y-68191001D01*
X79356605Y-68110152D01*
X79393319Y-68032528D01*
X79437464Y-67958876D01*
X79488616Y-67889906D01*
X79546282Y-67826282D01*
X79609906Y-67768616D01*
X79678876Y-67717464D01*
X79752528Y-67673319D01*
X79830152Y-67636605D01*
X79911001Y-67607677D01*
X79994296Y-67586813D01*
X80079235Y-67574213D01*
X80165000Y-67570000D01*
X81915000Y-67570000D01*
X82000765Y-67574213D01*
X82000765Y-67574213D01*
G37*
D19*
G04 #@! TO.P,DCjack1,3*
G04 #@! TO.N,GND*
X81040000Y-69320000D03*
G04 #@! TD*
D20*
G04 #@! TO.P,J1,3*
G04 #@! TO.N,Net-(J1-Pad3)*
X84000000Y-146000000D03*
G04 #@! TO.P,J1,2*
G04 #@! TO.N,Net-(J1-Pad2)*
X80500000Y-146000000D03*
D21*
G04 #@! TO.P,J1,1*
G04 #@! TO.N,Net-(J1-Pad1)*
X77000000Y-146000000D03*
G04 #@! TD*
G04 #@! TO.P,J2,1*
G04 #@! TO.N,Net-(J2-Pad1)*
X96000000Y-146000000D03*
D20*
G04 #@! TO.P,J2,2*
G04 #@! TO.N,Net-(J2-Pad2)*
X99500000Y-146000000D03*
G04 #@! TO.P,J2,3*
G04 #@! TO.N,Net-(J2-Pad3)*
X103000000Y-146000000D03*
G04 #@! TD*
D22*
G04 #@! TO.P,J3,1*
G04 #@! TO.N,/vcc3v3*
X122254000Y-81020700D03*
D23*
G04 #@! TO.P,J3,2*
G04 #@! TO.N,/s2*
X123254000Y-81020700D03*
G04 #@! TO.P,J3,3*
G04 #@! TO.N,/tx*
X122254000Y-82020700D03*
G04 #@! TO.P,J3,4*
G04 #@! TO.N,/rx*
X123254000Y-82020700D03*
G04 #@! TO.P,J3,5*
G04 #@! TO.N,/s3*
X122254000Y-83020700D03*
G04 #@! TO.P,J3,6*
G04 #@! TO.N,/s4*
X123254000Y-83020700D03*
G04 #@! TO.P,J3,7*
G04 #@! TO.N,/an10*
X122254000Y-84020700D03*
G04 #@! TO.P,J3,8*
G04 #@! TO.N,Net-(J3-Pad8)*
X123254000Y-84020700D03*
G04 #@! TO.P,J3,9*
G04 #@! TO.N,Net-(J3-Pad9)*
X122254000Y-85020700D03*
G04 #@! TO.P,J3,10*
G04 #@! TO.N,Net-(J3-Pad10)*
X123254000Y-85020700D03*
G04 #@! TO.P,J3,11*
G04 #@! TO.N,Net-(J3-Pad11)*
X122254000Y-86020700D03*
G04 #@! TO.P,J3,12*
G04 #@! TO.N,/an0*
X123254000Y-86020700D03*
G04 #@! TO.P,J3,13*
G04 #@! TO.N,/an1*
X122254000Y-87020700D03*
G04 #@! TO.P,J3,14*
G04 #@! TO.N,/an2*
X123254000Y-87020700D03*
G04 #@! TO.P,J3,15*
G04 #@! TO.N,/ch4*
X122254000Y-88020700D03*
G04 #@! TO.P,J3,16*
G04 #@! TO.N,/ch3*
X123254000Y-88020700D03*
G04 #@! TO.P,J3,17*
G04 #@! TO.N,/ch2*
X122254000Y-89020700D03*
G04 #@! TO.P,J3,18*
G04 #@! TO.N,/ch1*
X123254000Y-89020700D03*
G04 #@! TO.P,J3,19*
G04 #@! TO.N,GND*
X122254000Y-90020700D03*
G04 #@! TO.P,J3,20*
G04 #@! TO.N,/vcc5v*
X123254000Y-90020700D03*
G04 #@! TD*
G04 #@! TO.P,J4,20*
G04 #@! TO.N,GND*
X165864000Y-90020700D03*
G04 #@! TO.P,J4,19*
G04 #@! TO.N,/s0*
X164864000Y-90020700D03*
G04 #@! TO.P,J4,18*
G04 #@! TO.N,/s1*
X165864000Y-89020700D03*
G04 #@! TO.P,J4,17*
G04 #@! TO.N,Net-(J4-Pad17)*
X164864000Y-89020700D03*
G04 #@! TO.P,J4,16*
G04 #@! TO.N,Net-(J4-Pad16)*
X165864000Y-88020700D03*
G04 #@! TO.P,J4,15*
G04 #@! TO.N,Net-(J4-Pad15)*
X164864000Y-88020700D03*
G04 #@! TO.P,J4,14*
G04 #@! TO.N,Net-(J4-Pad14)*
X165864000Y-87020700D03*
G04 #@! TO.P,J4,13*
G04 #@! TO.N,/ch0*
X164864000Y-87020700D03*
G04 #@! TO.P,J4,12*
G04 #@! TO.N,Net-(J4-Pad12)*
X165864000Y-86020700D03*
G04 #@! TO.P,J4,11*
G04 #@! TO.N,Net-(J4-Pad11)*
X164864000Y-86020700D03*
G04 #@! TO.P,J4,10*
G04 #@! TO.N,Net-(J4-Pad10)*
X165864000Y-85020700D03*
G04 #@! TO.P,J4,9*
G04 #@! TO.N,Net-(J4-Pad9)*
X164864000Y-85020700D03*
G04 #@! TO.P,J4,8*
G04 #@! TO.N,/s0*
X165864000Y-84020700D03*
G04 #@! TO.P,J4,7*
G04 #@! TO.N,Net-(J4-Pad7)*
X164864000Y-84020700D03*
G04 #@! TO.P,J4,6*
G04 #@! TO.N,Net-(J4-Pad6)*
X165864000Y-83020700D03*
G04 #@! TO.P,J4,5*
G04 #@! TO.N,Net-(J4-Pad5)*
X164864000Y-83020700D03*
G04 #@! TO.P,J4,4*
G04 #@! TO.N,Net-(J4-Pad4)*
X165864000Y-82020700D03*
G04 #@! TO.P,J4,3*
G04 #@! TO.N,Net-(J4-Pad3)*
X164864000Y-82020700D03*
G04 #@! TO.P,J4,2*
G04 #@! TO.N,Net-(J4-Pad2)*
X165864000Y-81020700D03*
D22*
G04 #@! TO.P,J4,1*
G04 #@! TO.N,Net-(J4-Pad1)*
X164864000Y-81020700D03*
G04 #@! TD*
D20*
G04 #@! TO.P,J5,3*
G04 #@! TO.N,Net-(J5-Pad3)*
X123000000Y-146000000D03*
G04 #@! TO.P,J5,2*
G04 #@! TO.N,Net-(J5-Pad2)*
X119500000Y-146000000D03*
D21*
G04 #@! TO.P,J5,1*
G04 #@! TO.N,Net-(J5-Pad1)*
X116000000Y-146000000D03*
G04 #@! TD*
G04 #@! TO.P,J6,1*
G04 #@! TO.N,Net-(J6-Pad1)*
X137000000Y-146000000D03*
D20*
G04 #@! TO.P,J6,2*
G04 #@! TO.N,Net-(J6-Pad2)*
X140500000Y-146000000D03*
G04 #@! TO.P,J6,3*
G04 #@! TO.N,Net-(J6-Pad3)*
X144000000Y-146000000D03*
G04 #@! TD*
D21*
G04 #@! TO.P,J7,1*
G04 #@! TO.N,/ch0*
X96300000Y-54040000D03*
D20*
G04 #@! TO.P,J7,2*
G04 #@! TO.N,/ch1*
X92800000Y-54040000D03*
G04 #@! TO.P,J7,3*
G04 #@! TO.N,/ch2*
X89300000Y-54040000D03*
G04 #@! TO.P,J7,4*
G04 #@! TO.N,/ch3*
X85800000Y-54040000D03*
G04 #@! TO.P,J7,5*
G04 #@! TO.N,/ch4*
X82300000Y-54040000D03*
G04 #@! TD*
D21*
G04 #@! TO.P,J8,1*
G04 #@! TO.N,Net-(J8-Pad1)*
X156000000Y-146000000D03*
D20*
G04 #@! TO.P,J8,2*
G04 #@! TO.N,Net-(J8-Pad2)*
X159500000Y-146000000D03*
G04 #@! TO.P,J8,3*
G04 #@! TO.N,Net-(J8-Pad3)*
X163000000Y-146000000D03*
G04 #@! TD*
D21*
G04 #@! TO.P,J9,1*
G04 #@! TO.N,/an0*
X113280000Y-54140000D03*
D20*
G04 #@! TO.P,J9,2*
G04 #@! TO.N,/an1*
X109780000Y-54140000D03*
G04 #@! TO.P,J9,3*
G04 #@! TO.N,/an2*
X106280000Y-54140000D03*
G04 #@! TO.P,J9,4*
G04 #@! TO.N,/an10*
X102780000Y-54140000D03*
G04 #@! TD*
D22*
G04 #@! TO.P,J10,1*
G04 #@! TO.N,GND*
X106490000Y-76320000D03*
D23*
G04 #@! TO.P,J10,2*
G04 #@! TO.N,Net-(J10-Pad2)*
X106490000Y-75320000D03*
G04 #@! TO.P,J10,3*
G04 #@! TO.N,/io0*
X107490000Y-76320000D03*
G04 #@! TO.P,J10,4*
G04 #@! TO.N,/rx*
X107490000Y-75320000D03*
G04 #@! TO.P,J10,5*
G04 #@! TO.N,/vcc3v3*
X108490000Y-76320000D03*
G04 #@! TO.P,J10,6*
G04 #@! TO.N,/rs*
X108490000Y-75320000D03*
G04 #@! TO.P,J10,7*
G04 #@! TO.N,/en*
X109490000Y-76320000D03*
G04 #@! TO.P,J10,8*
G04 #@! TO.N,/tx*
X109490000Y-75320000D03*
G04 #@! TD*
D24*
G04 #@! TO.P,Q1,2*
G04 #@! TO.N,Net-(Q1-Pad2)*
X86270000Y-110000000D03*
G04 #@! TO.P,Q1,3*
G04 #@! TO.N,Net-(D1-Pad2)*
X87540000Y-110000000D03*
D25*
G04 #@! TO.P,Q1,1*
G04 #@! TO.N,Net-(Q1-Pad1)*
X85000000Y-110000000D03*
G04 #@! TD*
D24*
G04 #@! TO.P,Q2,2*
G04 #@! TO.N,Net-(Q2-Pad2)*
X106000000Y-109000000D03*
G04 #@! TO.P,Q2,3*
G04 #@! TO.N,Net-(D3-Pad2)*
X107270000Y-109000000D03*
D25*
G04 #@! TO.P,Q2,1*
G04 #@! TO.N,Net-(Q2-Pad1)*
X104730000Y-109000000D03*
G04 #@! TD*
G04 #@! TO.P,Q3,1*
G04 #@! TO.N,Net-(Q3-Pad1)*
X124000000Y-109000000D03*
D24*
G04 #@! TO.P,Q3,3*
G04 #@! TO.N,Net-(D6-Pad2)*
X126540000Y-109000000D03*
G04 #@! TO.P,Q3,2*
G04 #@! TO.N,Net-(Q3-Pad2)*
X125270000Y-109000000D03*
G04 #@! TD*
D25*
G04 #@! TO.P,Q4,1*
G04 #@! TO.N,Net-(Q4-Pad1)*
X144500000Y-108500000D03*
D24*
G04 #@! TO.P,Q4,3*
G04 #@! TO.N,Net-(D8-Pad2)*
X147040000Y-108500000D03*
G04 #@! TO.P,Q4,2*
G04 #@! TO.N,Net-(Q4-Pad2)*
X145770000Y-108500000D03*
G04 #@! TD*
G04 #@! TO.P,Q5,2*
G04 #@! TO.N,Net-(Q5-Pad2)*
X165770000Y-109000000D03*
G04 #@! TO.P,Q5,3*
G04 #@! TO.N,Net-(D10-Pad2)*
X167040000Y-109000000D03*
D25*
G04 #@! TO.P,Q5,1*
G04 #@! TO.N,Net-(Q5-Pad1)*
X164500000Y-109000000D03*
G04 #@! TD*
D26*
G04 #@! TO.P,R1,2*
G04 #@! TO.N,/s0*
X78080000Y-111000000D03*
D27*
G04 #@! TO.P,R1,1*
G04 #@! TO.N,Net-(Q1-Pad2)*
X73000000Y-111000000D03*
G04 #@! TD*
G04 #@! TO.P,R2,1*
G04 #@! TO.N,Net-(Q1-Pad2)*
X73000000Y-114000000D03*
D26*
G04 #@! TO.P,R2,2*
G04 #@! TO.N,GND*
X78080000Y-114000000D03*
G04 #@! TD*
G04 #@! TO.P,R3,2*
G04 #@! TO.N,/s3*
X99580000Y-113500000D03*
D27*
G04 #@! TO.P,R3,1*
G04 #@! TO.N,Net-(Q2-Pad2)*
X94500000Y-113500000D03*
G04 #@! TD*
G04 #@! TO.P,R4,1*
G04 #@! TO.N,Net-(Q2-Pad2)*
X94500000Y-116500000D03*
D26*
G04 #@! TO.P,R4,2*
G04 #@! TO.N,GND*
X99580000Y-116500000D03*
G04 #@! TD*
G04 #@! TO.P,R5,2*
G04 #@! TO.N,Net-(D2-Pad2)*
X78080000Y-117000000D03*
D27*
G04 #@! TO.P,R5,1*
G04 #@! TO.N,Net-(Q1-Pad1)*
X73000000Y-117000000D03*
G04 #@! TD*
D26*
G04 #@! TO.P,R6,2*
G04 #@! TO.N,Net-(D4-Pad2)*
X99080000Y-110500000D03*
D27*
G04 #@! TO.P,R6,1*
G04 #@! TO.N,Net-(Q2-Pad1)*
X94000000Y-110500000D03*
G04 #@! TD*
G04 #@! TO.P,R7,1*
G04 #@! TO.N,Net-(D5-Pad1)*
X96060000Y-85560000D03*
D26*
G04 #@! TO.P,R7,2*
G04 #@! TO.N,GND*
X90980000Y-85560000D03*
G04 #@! TD*
D27*
G04 #@! TO.P,R8,1*
G04 #@! TO.N,Net-(Q3-Pad2)*
X112500000Y-111000000D03*
D26*
G04 #@! TO.P,R8,2*
G04 #@! TO.N,/s4*
X117580000Y-111000000D03*
G04 #@! TD*
D27*
G04 #@! TO.P,R9,1*
G04 #@! TO.N,Net-(Q3-Pad2)*
X112500000Y-114000000D03*
D26*
G04 #@! TO.P,R9,2*
G04 #@! TO.N,GND*
X117580000Y-114000000D03*
G04 #@! TD*
G04 #@! TO.P,R10,2*
G04 #@! TO.N,/s1*
X138080000Y-113000000D03*
D27*
G04 #@! TO.P,R10,1*
G04 #@! TO.N,Net-(Q4-Pad2)*
X133000000Y-113000000D03*
G04 #@! TD*
G04 #@! TO.P,R11,1*
G04 #@! TO.N,Net-(Q4-Pad2)*
X133000000Y-116000000D03*
D26*
G04 #@! TO.P,R11,2*
G04 #@! TO.N,GND*
X138080000Y-116000000D03*
G04 #@! TD*
G04 #@! TO.P,R12,2*
G04 #@! TO.N,Net-(D7-Pad2)*
X117580000Y-117500000D03*
D27*
G04 #@! TO.P,R12,1*
G04 #@! TO.N,Net-(Q3-Pad1)*
X112500000Y-117500000D03*
G04 #@! TD*
D26*
G04 #@! TO.P,R13,2*
G04 #@! TO.N,Net-(D9-Pad2)*
X138080000Y-110500000D03*
D27*
G04 #@! TO.P,R13,1*
G04 #@! TO.N,Net-(Q4-Pad1)*
X133000000Y-110500000D03*
G04 #@! TD*
G04 #@! TO.P,R14,1*
G04 #@! TO.N,Net-(Q5-Pad2)*
X152000000Y-117000000D03*
D26*
G04 #@! TO.P,R14,2*
G04 #@! TO.N,/s2*
X157080000Y-117000000D03*
G04 #@! TD*
G04 #@! TO.P,R15,2*
G04 #@! TO.N,GND*
X157080000Y-110500000D03*
D27*
G04 #@! TO.P,R15,1*
G04 #@! TO.N,Net-(Q5-Pad2)*
X152000000Y-110500000D03*
G04 #@! TD*
G04 #@! TO.P,R16,1*
G04 #@! TO.N,Net-(Q5-Pad1)*
X152000000Y-113500000D03*
D26*
G04 #@! TO.P,R16,2*
G04 #@! TO.N,Net-(D11-Pad2)*
X157080000Y-113500000D03*
G04 #@! TD*
G04 #@! TO.P,R17,2*
G04 #@! TO.N,/io0*
X95910000Y-89020000D03*
D27*
G04 #@! TO.P,R17,1*
G04 #@! TO.N,/vcc3v3*
X90830000Y-89020000D03*
G04 #@! TD*
G04 #@! TO.P,R18,1*
G04 #@! TO.N,Net-(R18-Pad1)*
X90960000Y-95340000D03*
D26*
G04 #@! TO.P,R18,2*
G04 #@! TO.N,GND*
X96040000Y-95340000D03*
G04 #@! TD*
D27*
G04 #@! TO.P,R19,1*
G04 #@! TO.N,/vcc3v3*
X90960000Y-92180000D03*
D26*
G04 #@! TO.P,R19,2*
G04 #@! TO.N,/rs*
X96040000Y-92180000D03*
G04 #@! TD*
G04 #@! TO.P,R20,2*
G04 #@! TO.N,/en*
X96040000Y-98630000D03*
D27*
G04 #@! TO.P,R20,1*
G04 #@! TO.N,/vcc3v3*
X90960000Y-98630000D03*
G04 #@! TD*
D28*
G04 #@! TO.P,reg1,1*
G04 #@! TO.N,GND*
X85680000Y-80890000D03*
D29*
G04 #@! TO.P,reg1,2*
G04 #@! TO.N,/vcc3v3*
X80230000Y-80890000D03*
G04 #@! TO.P,reg1,3*
G04 #@! TO.N,/vcc5v*
X74780000Y-80890000D03*
G04 #@! TD*
D30*
G04 #@! TO.P,relay1,2*
G04 #@! TO.N,Net-(D1-Pad2)*
X73950000Y-123950000D03*
D18*
G04 #@! TO.P,relay1,3*
G04 #@! TO.N,Net-(J1-Pad1)*
X73950000Y-136150000D03*
G04 #@! TO.P,relay1,4*
G04 #@! TO.N,Net-(J1-Pad3)*
X86000000Y-136200000D03*
D30*
G04 #@! TO.P,relay1,5*
G04 #@! TO.N,/vcc5v*
X85950000Y-123950000D03*
D18*
G04 #@! TO.P,relay1,1*
G04 #@! TO.N,Net-(J1-Pad2)*
X80000000Y-122000000D03*
G04 #@! TD*
G04 #@! TO.P,relay2,1*
G04 #@! TO.N,Net-(J2-Pad2)*
X100000000Y-122000000D03*
D30*
G04 #@! TO.P,relay2,5*
G04 #@! TO.N,/vcc5v*
X105950000Y-123950000D03*
D18*
G04 #@! TO.P,relay2,4*
G04 #@! TO.N,Net-(J2-Pad3)*
X106000000Y-136200000D03*
G04 #@! TO.P,relay2,3*
G04 #@! TO.N,Net-(J2-Pad1)*
X93950000Y-136150000D03*
D30*
G04 #@! TO.P,relay2,2*
G04 #@! TO.N,Net-(D3-Pad2)*
X93950000Y-123950000D03*
G04 #@! TD*
D18*
G04 #@! TO.P,relay3,1*
G04 #@! TO.N,Net-(J5-Pad2)*
X120000000Y-122000000D03*
D30*
G04 #@! TO.P,relay3,5*
G04 #@! TO.N,/vcc5v*
X125950000Y-123950000D03*
D18*
G04 #@! TO.P,relay3,4*
G04 #@! TO.N,Net-(J5-Pad3)*
X126000000Y-136200000D03*
G04 #@! TO.P,relay3,3*
G04 #@! TO.N,Net-(J5-Pad1)*
X113950000Y-136150000D03*
D30*
G04 #@! TO.P,relay3,2*
G04 #@! TO.N,Net-(D6-Pad2)*
X113950000Y-123950000D03*
G04 #@! TD*
G04 #@! TO.P,relay4,2*
G04 #@! TO.N,Net-(D8-Pad2)*
X133950000Y-123950000D03*
D18*
G04 #@! TO.P,relay4,3*
G04 #@! TO.N,Net-(J6-Pad1)*
X133950000Y-136150000D03*
G04 #@! TO.P,relay4,4*
G04 #@! TO.N,Net-(J6-Pad3)*
X146000000Y-136200000D03*
D30*
G04 #@! TO.P,relay4,5*
G04 #@! TO.N,/vcc5v*
X145950000Y-123950000D03*
D18*
G04 #@! TO.P,relay4,1*
G04 #@! TO.N,Net-(J6-Pad2)*
X140000000Y-122000000D03*
G04 #@! TD*
D30*
G04 #@! TO.P,relay5,2*
G04 #@! TO.N,Net-(D10-Pad2)*
X153950000Y-123950000D03*
D18*
G04 #@! TO.P,relay5,3*
G04 #@! TO.N,Net-(J8-Pad1)*
X153950000Y-136150000D03*
G04 #@! TO.P,relay5,4*
G04 #@! TO.N,Net-(J8-Pad3)*
X166000000Y-136200000D03*
D30*
G04 #@! TO.P,relay5,5*
G04 #@! TO.N,/vcc5v*
X165950000Y-123950000D03*
D18*
G04 #@! TO.P,relay5,1*
G04 #@! TO.N,Net-(J8-Pad2)*
X160000000Y-122000000D03*
G04 #@! TD*
D31*
G04 #@! TO.P,SW1,1*
G04 #@! TO.N,Net-(R18-Pad1)*
X82020000Y-96720000D03*
G04 #@! TO.P,SW1,2*
G04 #@! TO.N,/io0*
X82020000Y-101220000D03*
G04 #@! TO.P,SW1,1*
G04 #@! TO.N,Net-(R18-Pad1)*
X75520000Y-96720000D03*
G04 #@! TO.P,SW1,2*
G04 #@! TO.N,/io0*
X75520000Y-101220000D03*
G04 #@! TD*
G04 #@! TO.P,SW2,2*
G04 #@! TO.N,/rs*
X75190000Y-92560000D03*
G04 #@! TO.P,SW2,1*
G04 #@! TO.N,GND*
X75190000Y-88060000D03*
G04 #@! TO.P,SW2,2*
G04 #@! TO.N,/rs*
X81690000Y-92560000D03*
G04 #@! TO.P,SW2,1*
G04 #@! TO.N,GND*
X81690000Y-88060000D03*
G04 #@! TD*
D32*
G04 #@! TO.N,/s3*
X117952400Y-87248400D03*
G04 #@! TO.N,/an0*
X122322200Y-78512300D03*
G04 #@! TO.N,/an2*
X120348700Y-76205600D03*
G04 #@! TO.N,/tx*
X113592300Y-79385800D03*
G04 #@! TD*
D33*
G04 #@! TO.N,/vcc5v*
X151000000Y-106500000D02*
X151000000Y-107725300D01*
X151000000Y-107725300D02*
X149774700Y-108950600D01*
X149774700Y-108950600D02*
X149774700Y-120125300D01*
X149774700Y-120125300D02*
X145950000Y-123950000D01*
X123254000Y-90020700D02*
X123254000Y-94520700D01*
X123254000Y-94520700D02*
X112000000Y-105774700D01*
X93000000Y-106500000D02*
X93000000Y-107725300D01*
X93000000Y-107725300D02*
X92134600Y-108590700D01*
X92134600Y-108590700D02*
X92134600Y-117765400D01*
X92134600Y-117765400D02*
X85950000Y-123950000D01*
X112000000Y-107000000D02*
X112000000Y-105774700D01*
X91290000Y-73170000D02*
X90364700Y-73170000D01*
X84040000Y-64620000D02*
X84040000Y-66695300D01*
X84040000Y-66695300D02*
X90364700Y-73020000D01*
X90364700Y-73020000D02*
X90364700Y-73170000D01*
X74780000Y-80890000D02*
X74780000Y-78314700D01*
X74780000Y-78314700D02*
X73520000Y-77054700D01*
X73520000Y-77054700D02*
X73520000Y-74470000D01*
X112000000Y-107000000D02*
X112000000Y-108225300D01*
X105950000Y-123950000D02*
X110774700Y-119125300D01*
X110774700Y-119125300D02*
X110774700Y-109450600D01*
X110774700Y-109450600D02*
X112000000Y-108225300D01*
X132500000Y-106500000D02*
X132500000Y-107725300D01*
X125950000Y-123950000D02*
X131274700Y-118625300D01*
X131274700Y-118625300D02*
X131274700Y-108950600D01*
X131274700Y-108950600D02*
X132500000Y-107725300D01*
G04 #@! TO.N,GND*
X96040000Y-95340000D02*
X96040000Y-94314700D01*
X90980000Y-85560000D02*
X90980000Y-86585300D01*
X90980000Y-86585300D02*
X92005300Y-87610600D01*
X92005300Y-87610600D02*
X92005300Y-90280000D01*
X92005300Y-90280000D02*
X96040000Y-94314700D01*
X86000000Y-114000000D02*
X86000000Y-112774700D01*
X96040000Y-95340000D02*
X96040000Y-96365300D01*
X96040000Y-96365300D02*
X88474300Y-103931000D01*
X88474300Y-103931000D02*
X88474300Y-110836500D01*
X88474300Y-110836500D02*
X86536100Y-112774700D01*
X86536100Y-112774700D02*
X86000000Y-112774700D01*
X81690000Y-88060000D02*
X75190000Y-88060000D01*
X85680000Y-80890000D02*
X85680000Y-84070000D01*
X85680000Y-84070000D02*
X81690000Y-88060000D01*
X165864000Y-90020700D02*
X165864000Y-90771000D01*
X157080000Y-110500000D02*
X157080000Y-99555000D01*
X157080000Y-99555000D02*
X165864000Y-90771000D01*
X92790000Y-73170000D02*
X92790000Y-78930000D01*
X81040000Y-69320000D02*
X78040000Y-66320000D01*
X78040000Y-66320000D02*
X78040000Y-64620000D01*
G04 #@! TO.N,/vcc3v3*
X89951300Y-78930000D02*
X89951300Y-88141300D01*
X89951300Y-88141300D02*
X90830000Y-89020000D01*
X81805300Y-80890000D02*
X81805300Y-80791500D01*
X81805300Y-80791500D02*
X84308900Y-78287900D01*
X84308900Y-78287900D02*
X89309200Y-78287900D01*
X89309200Y-78287900D02*
X89951300Y-78930000D01*
X89951300Y-78930000D02*
X90364700Y-78930000D01*
X91290000Y-78930000D02*
X90364700Y-78930000D01*
X80230000Y-80890000D02*
X81805300Y-80890000D01*
X90960000Y-92180000D02*
X91986300Y-93206300D01*
X91986300Y-93206300D02*
X91986300Y-97603700D01*
X91986300Y-97603700D02*
X90960000Y-98630000D01*
X90830000Y-89020000D02*
X90830000Y-92050000D01*
X90830000Y-92050000D02*
X90960000Y-92180000D01*
G04 #@! TO.N,Net-(D3-Pad2)*
X93950000Y-123950000D02*
X100620000Y-117280000D01*
X100620000Y-117280000D02*
X100620000Y-106500000D01*
G04 #@! TO.N,Net-(D6-Pad2)*
X113950000Y-123950000D02*
X119620000Y-118280000D01*
X119620000Y-118280000D02*
X119620000Y-107000000D01*
G04 #@! TO.N,Net-(D8-Pad2)*
X133950000Y-123950000D02*
X140120000Y-117780000D01*
X140120000Y-117780000D02*
X140120000Y-106500000D01*
G04 #@! TO.N,Net-(D10-Pad2)*
X158620000Y-107924700D02*
X158620000Y-106500000D01*
X153950000Y-123950000D02*
X158620000Y-119280000D01*
X158620000Y-119280000D02*
X158620000Y-107924700D01*
X158620000Y-107924700D02*
X167040000Y-107924700D01*
X167040000Y-109000000D02*
X167040000Y-107924700D01*
G04 #@! TO.N,/s2*
X157080000Y-117000000D02*
X157080000Y-115974700D01*
X157080000Y-115974700D02*
X156054700Y-114949400D01*
X156054700Y-114949400D02*
X156054700Y-109292500D01*
X156054700Y-109292500D02*
X127782900Y-81020700D01*
X127782900Y-81020700D02*
X123254000Y-81020700D01*
G04 #@! TO.N,/s3*
X99580000Y-113500000D02*
X99580000Y-112474700D01*
X99580000Y-112474700D02*
X100107900Y-111946800D01*
X100107900Y-111946800D02*
X100107900Y-109370700D01*
X100107900Y-109370700D02*
X99379400Y-108642200D01*
X99379400Y-108642200D02*
X99379400Y-105821400D01*
X99379400Y-105821400D02*
X117952400Y-87248400D01*
G04 #@! TO.N,/s4*
X123254000Y-83020700D02*
X124004300Y-83020700D01*
X117580000Y-111000000D02*
X117580000Y-103056700D01*
X117580000Y-103056700D02*
X124004300Y-96632400D01*
X124004300Y-96632400D02*
X124004300Y-83020700D01*
G04 #@! TO.N,/an10*
X121503700Y-84020700D02*
X121503700Y-76713300D01*
X121503700Y-76713300D02*
X121524300Y-76692700D01*
X121524300Y-76692700D02*
X121524300Y-65884200D01*
X121524300Y-65884200D02*
X111353400Y-55713300D01*
X111353400Y-55713300D02*
X111353400Y-53538600D01*
X111353400Y-53538600D02*
X110429400Y-52614600D01*
X110429400Y-52614600D02*
X104305400Y-52614600D01*
X104305400Y-52614600D02*
X102780000Y-54140000D01*
X122254000Y-84020700D02*
X121503700Y-84020700D01*
G04 #@! TO.N,/an0*
X113280000Y-55665300D02*
X122322200Y-64707500D01*
X122322200Y-64707500D02*
X122322200Y-78512300D01*
X113280000Y-54140000D02*
X113280000Y-55665300D01*
G04 #@! TO.N,/an1*
X121503700Y-87020700D02*
X121053400Y-86570400D01*
X121053400Y-86570400D02*
X121053400Y-76526700D01*
X121053400Y-76526700D02*
X121074000Y-76506100D01*
X121074000Y-76506100D02*
X121074000Y-66070800D01*
X121074000Y-66070800D02*
X109780000Y-54776800D01*
X109780000Y-54776800D02*
X109780000Y-54140000D01*
X122254000Y-87020700D02*
X121503700Y-87020700D01*
G04 #@! TO.N,/an2*
X106280000Y-54140000D02*
X106280000Y-62136900D01*
X106280000Y-62136900D02*
X120348700Y-76205600D01*
G04 #@! TO.N,/ch4*
X122254000Y-88020700D02*
X121503700Y-88020700D01*
X82300000Y-54040000D02*
X83850000Y-52490000D01*
X83850000Y-52490000D02*
X89928600Y-52490000D01*
X89928600Y-52490000D02*
X91053200Y-53614600D01*
X91053200Y-53614600D02*
X91053200Y-54466000D01*
X91053200Y-54466000D02*
X120149200Y-83562000D01*
X120149200Y-83562000D02*
X120149200Y-86666200D01*
X120149200Y-86666200D02*
X121503700Y-88020700D01*
G04 #@! TO.N,/ch2*
X122254000Y-89020700D02*
X121503700Y-89020700D01*
X89300000Y-54040000D02*
X119490100Y-84230100D01*
X119490100Y-84230100D02*
X119490100Y-87007100D01*
X119490100Y-87007100D02*
X121503700Y-89020700D01*
G04 #@! TO.N,/s0*
X165864000Y-84020700D02*
X166614300Y-84020700D01*
X164864000Y-90020700D02*
X164113700Y-90020700D01*
X164113700Y-90020700D02*
X164113700Y-80442500D01*
X164113700Y-80442500D02*
X164301900Y-80254300D01*
X164301900Y-80254300D02*
X166164100Y-80254300D01*
X166164100Y-80254300D02*
X166614300Y-80704500D01*
X166614300Y-80704500D02*
X166614300Y-84020700D01*
G04 #@! TO.N,/tx*
X109490000Y-75320000D02*
X109630600Y-75320000D01*
X109630600Y-75320000D02*
X113592300Y-79281700D01*
X113592300Y-79281700D02*
X113592300Y-79385800D01*
G04 #@! TO.N,/io0*
X107490000Y-76320000D02*
X107490000Y-77070300D01*
X95910000Y-89020000D02*
X95910000Y-87994700D01*
X95910000Y-87994700D02*
X96565600Y-87994700D01*
X96565600Y-87994700D02*
X107490000Y-77070300D01*
G04 #@! TO.N,/rs*
X108490000Y-75320000D02*
X108490000Y-74569700D01*
X96040000Y-92180000D02*
X96040000Y-91154700D01*
X96040000Y-91154700D02*
X94871800Y-89986500D01*
X94871800Y-89986500D02*
X94871800Y-85294800D01*
X94871800Y-85294800D02*
X105596900Y-74569700D01*
X105596900Y-74569700D02*
X108490000Y-74569700D01*
G04 #@! TO.N,/en*
X96040000Y-98630000D02*
X96040000Y-97604700D01*
X96040000Y-97604700D02*
X109490000Y-84154700D01*
X109490000Y-84154700D02*
X109490000Y-76320000D01*
G04 #@! TO.N,Net-(J8-Pad1)*
X153950000Y-136150000D02*
X156000000Y-138200000D01*
X156000000Y-138200000D02*
X156000000Y-146000000D01*
G04 #@! TO.N,Net-(J8-Pad2)*
X160000000Y-122000000D02*
X159500000Y-122500000D01*
X159500000Y-122500000D02*
X159500000Y-146000000D01*
G04 #@! TO.N,Net-(J8-Pad3)*
X166000000Y-136200000D02*
X163000000Y-139200000D01*
X163000000Y-139200000D02*
X163000000Y-146000000D01*
G04 #@! TO.N,Net-(Q2-Pad2)*
X94500000Y-116500000D02*
X94500000Y-113500000D01*
G04 #@! TO.N,Net-(Q3-Pad2)*
X112500000Y-114000000D02*
X112500000Y-111000000D01*
G04 #@! TO.N,Net-(Q4-Pad2)*
X133000000Y-116000000D02*
X133000000Y-113000000D01*
G04 #@! TO.N,Net-(Q5-Pad2)*
X152000000Y-117000000D02*
X150927900Y-115927900D01*
X150927900Y-115927900D02*
X150927900Y-111572100D01*
X150927900Y-111572100D02*
X152000000Y-110500000D01*
G04 #@! TO.N,Net-(D1-Pad2)*
X80620000Y-111075300D02*
X80620000Y-107000000D01*
X73950000Y-123950000D02*
X80620000Y-117280000D01*
X80620000Y-117280000D02*
X80620000Y-111075300D01*
X80620000Y-111075300D02*
X87540000Y-111075300D01*
X87540000Y-110000000D02*
X87540000Y-111075300D01*
G04 #@! TO.N,Net-(J1-Pad1)*
X73950000Y-136150000D02*
X77000000Y-139200000D01*
X77000000Y-139200000D02*
X77000000Y-146000000D01*
G04 #@! TO.N,Net-(J1-Pad2)*
X80000000Y-122000000D02*
X80500000Y-122500000D01*
X80500000Y-122500000D02*
X80500000Y-146000000D01*
G04 #@! TO.N,Net-(J1-Pad3)*
X86000000Y-136200000D02*
X84000000Y-138200000D01*
X84000000Y-138200000D02*
X84000000Y-146000000D01*
G04 #@! TO.N,Net-(J2-Pad3)*
X106000000Y-136200000D02*
X103000000Y-139200000D01*
X103000000Y-139200000D02*
X103000000Y-146000000D01*
G04 #@! TO.N,Net-(J2-Pad2)*
X100000000Y-122000000D02*
X99500000Y-122500000D01*
X99500000Y-122500000D02*
X99500000Y-146000000D01*
G04 #@! TO.N,Net-(J2-Pad1)*
X93950000Y-136150000D02*
X96000000Y-138200000D01*
X96000000Y-138200000D02*
X96000000Y-146000000D01*
G04 #@! TO.N,Net-(J5-Pad3)*
X126000000Y-136200000D02*
X123000000Y-139200000D01*
X123000000Y-139200000D02*
X123000000Y-146000000D01*
G04 #@! TO.N,Net-(J5-Pad2)*
X120000000Y-122000000D02*
X119500000Y-122500000D01*
X119500000Y-122500000D02*
X119500000Y-146000000D01*
G04 #@! TO.N,Net-(J5-Pad1)*
X113950000Y-136150000D02*
X116000000Y-138200000D01*
X116000000Y-138200000D02*
X116000000Y-146000000D01*
G04 #@! TO.N,Net-(J6-Pad1)*
X133950000Y-136150000D02*
X137000000Y-139200000D01*
X137000000Y-139200000D02*
X137000000Y-146000000D01*
G04 #@! TO.N,Net-(J6-Pad2)*
X140000000Y-122000000D02*
X140500000Y-122500000D01*
X140500000Y-122500000D02*
X140500000Y-146000000D01*
G04 #@! TO.N,Net-(J6-Pad3)*
X146000000Y-136200000D02*
X144000000Y-138200000D01*
X144000000Y-138200000D02*
X144000000Y-146000000D01*
G04 #@! TD*
M02*
