G04 #@! TF.GenerationSoftware,KiCad,Pcbnew,5.0.2-bee76a0~70~ubuntu18.04.1*
G04 #@! TF.CreationDate,2019-05-18T20:43:57+03:00*
G04 #@! TF.ProjectId,IOT_Board,494f545f-426f-4617-9264-2e6b69636164,rev?*
G04 #@! TF.SameCoordinates,Original*
G04 #@! TF.FileFunction,Copper,L2,Bot*
G04 #@! TF.FilePolarity,Positive*
%FSLAX46Y46*%
G04 Gerber Fmt 4.6, Leading zero omitted, Abs format (unit mm)*
G04 Created by KiCad (PCBNEW 5.0.2-bee76a0~70~ubuntu18.04.1) date Sat 18 May 2019 08:43:57 PM EAT*
%MOMM*%
%LPD*%
G01*
G04 APERTURE LIST*
G04 #@! TA.AperFunction,NonConductor*
%ADD10C,0.150000*%
G04 #@! TD*
G04 #@! TA.AperFunction,ComponentPad*
%ADD11R,1.200000X1.200000*%
G04 #@! TD*
G04 #@! TA.AperFunction,ComponentPad*
%ADD12C,1.200000*%
G04 #@! TD*
G04 #@! TA.AperFunction,ComponentPad*
%ADD13R,1.800000X1.800000*%
G04 #@! TD*
G04 #@! TA.AperFunction,ComponentPad*
%ADD14O,1.800000X1.800000*%
G04 #@! TD*
G04 #@! TA.AperFunction,ComponentPad*
%ADD15C,1.800000*%
G04 #@! TD*
G04 #@! TA.AperFunction,ComponentPad*
%ADD16R,3.500000X3.500000*%
G04 #@! TD*
G04 #@! TA.AperFunction,Conductor*
%ADD17C,0.100000*%
G04 #@! TD*
G04 #@! TA.AperFunction,ComponentPad*
%ADD18C,3.000000*%
G04 #@! TD*
G04 #@! TA.AperFunction,ComponentPad*
%ADD19C,3.500000*%
G04 #@! TD*
G04 #@! TA.AperFunction,ComponentPad*
%ADD20C,2.400000*%
G04 #@! TD*
G04 #@! TA.AperFunction,ComponentPad*
%ADD21R,2.400000X2.400000*%
G04 #@! TD*
G04 #@! TA.AperFunction,ComponentPad*
%ADD22R,0.850000X0.850000*%
G04 #@! TD*
G04 #@! TA.AperFunction,ComponentPad*
%ADD23O,0.850000X0.850000*%
G04 #@! TD*
G04 #@! TA.AperFunction,ComponentPad*
%ADD24O,1.050000X1.500000*%
G04 #@! TD*
G04 #@! TA.AperFunction,ComponentPad*
%ADD25R,1.050000X1.500000*%
G04 #@! TD*
G04 #@! TA.AperFunction,ComponentPad*
%ADD26O,1.400000X1.400000*%
G04 #@! TD*
G04 #@! TA.AperFunction,ComponentPad*
%ADD27C,1.400000*%
G04 #@! TD*
G04 #@! TA.AperFunction,ComponentPad*
%ADD28R,2.500000X4.500000*%
G04 #@! TD*
G04 #@! TA.AperFunction,ComponentPad*
%ADD29O,2.500000X4.500000*%
G04 #@! TD*
G04 #@! TA.AperFunction,ComponentPad*
%ADD30C,2.500000*%
G04 #@! TD*
G04 #@! TA.AperFunction,ComponentPad*
%ADD31C,2.000000*%
G04 #@! TD*
G04 #@! TA.AperFunction,ViaPad*
%ADD32C,0.800000*%
G04 #@! TD*
G04 #@! TA.AperFunction,Conductor*
%ADD33C,0.250000*%
G04 #@! TD*
G04 APERTURE END LIST*
D10*
X70000000Y-50000000D02*
X70000000Y-150000000D01*
X170000000Y-50000000D02*
X70000000Y-50000000D01*
X170000000Y-150000000D02*
X170000000Y-50000000D01*
X70000000Y-150000000D02*
X170000000Y-150000000D01*
D11*
G04 #@! TO.P,Cin1,1*
G04 #@! TO.N,/vcc5v*
X91290000Y-73170000D03*
D12*
G04 #@! TO.P,Cin1,2*
G04 #@! TO.N,GND*
X92790000Y-73170000D03*
G04 #@! TD*
G04 #@! TO.P,Cout1,2*
G04 #@! TO.N,GND*
X92790000Y-78930000D03*
D11*
G04 #@! TO.P,Cout1,1*
G04 #@! TO.N,/vcc3v3*
X91290000Y-78930000D03*
G04 #@! TD*
D13*
G04 #@! TO.P,D1,1*
G04 #@! TO.N,/vcc5v*
X73000000Y-107000000D03*
D14*
G04 #@! TO.P,D1,2*
G04 #@! TO.N,Net-(D1-Pad2)*
X80620000Y-107000000D03*
G04 #@! TD*
D13*
G04 #@! TO.P,D2,1*
G04 #@! TO.N,GND*
X86000000Y-114000000D03*
D15*
G04 #@! TO.P,D2,2*
G04 #@! TO.N,Net-(D2-Pad2)*
X86000000Y-116540000D03*
G04 #@! TD*
D13*
G04 #@! TO.P,D3,1*
G04 #@! TO.N,/vcc5v*
X93000000Y-106500000D03*
D14*
G04 #@! TO.P,D3,2*
G04 #@! TO.N,Net-(D3-Pad2)*
X100620000Y-106500000D03*
G04 #@! TD*
D15*
G04 #@! TO.P,D4,2*
G04 #@! TO.N,Net-(D4-Pad2)*
X106540000Y-116000000D03*
D13*
G04 #@! TO.P,D4,1*
G04 #@! TO.N,GND*
X104000000Y-116000000D03*
G04 #@! TD*
D15*
G04 #@! TO.P,D5,2*
G04 #@! TO.N,/vcc5v*
X73520000Y-74470000D03*
D13*
G04 #@! TO.P,D5,1*
G04 #@! TO.N,Net-(D5-Pad1)*
X76060000Y-74470000D03*
G04 #@! TD*
D14*
G04 #@! TO.P,D6,2*
G04 #@! TO.N,Net-(D6-Pad2)*
X119620000Y-107000000D03*
D13*
G04 #@! TO.P,D6,1*
G04 #@! TO.N,/vcc5v*
X112000000Y-107000000D03*
G04 #@! TD*
G04 #@! TO.P,D7,1*
G04 #@! TO.N,GND*
X123500000Y-116000000D03*
D15*
G04 #@! TO.P,D7,2*
G04 #@! TO.N,Net-(D7-Pad2)*
X126040000Y-116000000D03*
G04 #@! TD*
D14*
G04 #@! TO.P,D8,2*
G04 #@! TO.N,Net-(D8-Pad2)*
X140120000Y-106500000D03*
D13*
G04 #@! TO.P,D8,1*
G04 #@! TO.N,/vcc5v*
X132500000Y-106500000D03*
G04 #@! TD*
G04 #@! TO.P,D9,1*
G04 #@! TO.N,GND*
X143000000Y-115000000D03*
D15*
G04 #@! TO.P,D9,2*
G04 #@! TO.N,Net-(D9-Pad2)*
X145540000Y-115000000D03*
G04 #@! TD*
D13*
G04 #@! TO.P,D10,1*
G04 #@! TO.N,/vcc5v*
X151000000Y-106500000D03*
D14*
G04 #@! TO.P,D10,2*
G04 #@! TO.N,Net-(D10-Pad2)*
X158620000Y-106500000D03*
G04 #@! TD*
D15*
G04 #@! TO.P,D11,2*
G04 #@! TO.N,Net-(D11-Pad2)*
X166540000Y-115500000D03*
D13*
G04 #@! TO.P,D11,1*
G04 #@! TO.N,GND*
X164000000Y-115500000D03*
G04 #@! TD*
D16*
G04 #@! TO.P,DCjack1,1*
G04 #@! TO.N,/vcc5v*
X84040000Y-64620000D03*
D17*
G04 #@! TD*
G04 #@! TO.N,GND*
G04 #@! TO.C,DCjack1*
G36*
X78863513Y-62873611D02*
X78936318Y-62884411D01*
X79007714Y-62902295D01*
X79077013Y-62927090D01*
X79143548Y-62958559D01*
X79206678Y-62996398D01*
X79265795Y-63040242D01*
X79320330Y-63089670D01*
X79369758Y-63144205D01*
X79413602Y-63203322D01*
X79451441Y-63266452D01*
X79482910Y-63332987D01*
X79507705Y-63402286D01*
X79525589Y-63473682D01*
X79536389Y-63546487D01*
X79540000Y-63620000D01*
X79540000Y-65620000D01*
X79536389Y-65693513D01*
X79525589Y-65766318D01*
X79507705Y-65837714D01*
X79482910Y-65907013D01*
X79451441Y-65973548D01*
X79413602Y-66036678D01*
X79369758Y-66095795D01*
X79320330Y-66150330D01*
X79265795Y-66199758D01*
X79206678Y-66243602D01*
X79143548Y-66281441D01*
X79077013Y-66312910D01*
X79007714Y-66337705D01*
X78936318Y-66355589D01*
X78863513Y-66366389D01*
X78790000Y-66370000D01*
X77290000Y-66370000D01*
X77216487Y-66366389D01*
X77143682Y-66355589D01*
X77072286Y-66337705D01*
X77002987Y-66312910D01*
X76936452Y-66281441D01*
X76873322Y-66243602D01*
X76814205Y-66199758D01*
X76759670Y-66150330D01*
X76710242Y-66095795D01*
X76666398Y-66036678D01*
X76628559Y-65973548D01*
X76597090Y-65907013D01*
X76572295Y-65837714D01*
X76554411Y-65766318D01*
X76543611Y-65693513D01*
X76540000Y-65620000D01*
X76540000Y-63620000D01*
X76543611Y-63546487D01*
X76554411Y-63473682D01*
X76572295Y-63402286D01*
X76597090Y-63332987D01*
X76628559Y-63266452D01*
X76666398Y-63203322D01*
X76710242Y-63144205D01*
X76759670Y-63089670D01*
X76814205Y-63040242D01*
X76873322Y-62996398D01*
X76936452Y-62958559D01*
X77002987Y-62927090D01*
X77072286Y-62902295D01*
X77143682Y-62884411D01*
X77216487Y-62873611D01*
X77290000Y-62870000D01*
X78790000Y-62870000D01*
X78863513Y-62873611D01*
X78863513Y-62873611D01*
G37*
D18*
G04 #@! TO.P,DCjack1,2*
G04 #@! TO.N,GND*
X78040000Y-64620000D03*
D17*
G04 #@! TD*
G04 #@! TO.N,GND*
G04 #@! TO.C,DCjack1*
G36*
X82000765Y-67574213D02*
X82085704Y-67586813D01*
X82168999Y-67607677D01*
X82249848Y-67636605D01*
X82327472Y-67673319D01*
X82401124Y-67717464D01*
X82470094Y-67768616D01*
X82533718Y-67826282D01*
X82591384Y-67889906D01*
X82642536Y-67958876D01*
X82686681Y-68032528D01*
X82723395Y-68110152D01*
X82752323Y-68191001D01*
X82773187Y-68274296D01*
X82785787Y-68359235D01*
X82790000Y-68445000D01*
X82790000Y-70195000D01*
X82785787Y-70280765D01*
X82773187Y-70365704D01*
X82752323Y-70448999D01*
X82723395Y-70529848D01*
X82686681Y-70607472D01*
X82642536Y-70681124D01*
X82591384Y-70750094D01*
X82533718Y-70813718D01*
X82470094Y-70871384D01*
X82401124Y-70922536D01*
X82327472Y-70966681D01*
X82249848Y-71003395D01*
X82168999Y-71032323D01*
X82085704Y-71053187D01*
X82000765Y-71065787D01*
X81915000Y-71070000D01*
X80165000Y-71070000D01*
X80079235Y-71065787D01*
X79994296Y-71053187D01*
X79911001Y-71032323D01*
X79830152Y-71003395D01*
X79752528Y-70966681D01*
X79678876Y-70922536D01*
X79609906Y-70871384D01*
X79546282Y-70813718D01*
X79488616Y-70750094D01*
X79437464Y-70681124D01*
X79393319Y-70607472D01*
X79356605Y-70529848D01*
X79327677Y-70448999D01*
X79306813Y-70365704D01*
X79294213Y-70280765D01*
X79290000Y-70195000D01*
X79290000Y-68445000D01*
X79294213Y-68359235D01*
X79306813Y-68274296D01*
X79327677Y-68191001D01*
X79356605Y-68110152D01*
X79393319Y-68032528D01*
X79437464Y-67958876D01*
X79488616Y-67889906D01*
X79546282Y-67826282D01*
X79609906Y-67768616D01*
X79678876Y-67717464D01*
X79752528Y-67673319D01*
X79830152Y-67636605D01*
X79911001Y-67607677D01*
X79994296Y-67586813D01*
X80079235Y-67574213D01*
X80165000Y-67570000D01*
X81915000Y-67570000D01*
X82000765Y-67574213D01*
X82000765Y-67574213D01*
G37*
D19*
G04 #@! TO.P,DCjack1,3*
G04 #@! TO.N,GND*
X81040000Y-69320000D03*
G04 #@! TD*
D20*
G04 #@! TO.P,J1,3*
G04 #@! TO.N,Net-(J1-Pad3)*
X84000000Y-146000000D03*
G04 #@! TO.P,J1,2*
G04 #@! TO.N,Net-(J1-Pad2)*
X80500000Y-146000000D03*
D21*
G04 #@! TO.P,J1,1*
G04 #@! TO.N,Net-(J1-Pad1)*
X77000000Y-146000000D03*
G04 #@! TD*
G04 #@! TO.P,J2,1*
G04 #@! TO.N,Net-(J2-Pad1)*
X96000000Y-146000000D03*
D20*
G04 #@! TO.P,J2,2*
G04 #@! TO.N,Net-(J2-Pad2)*
X99500000Y-146000000D03*
G04 #@! TO.P,J2,3*
G04 #@! TO.N,Net-(J2-Pad3)*
X103000000Y-146000000D03*
G04 #@! TD*
D22*
G04 #@! TO.P,J3,1*
G04 #@! TO.N,/vcc3v3*
X122254000Y-81020700D03*
D23*
G04 #@! TO.P,J3,2*
G04 #@! TO.N,/s2*
X123254000Y-81020700D03*
G04 #@! TO.P,J3,3*
G04 #@! TO.N,/tx*
X122254000Y-82020700D03*
G04 #@! TO.P,J3,4*
G04 #@! TO.N,/rx*
X123254000Y-82020700D03*
G04 #@! TO.P,J3,5*
G04 #@! TO.N,/s3*
X122254000Y-83020700D03*
G04 #@! TO.P,J3,6*
G04 #@! TO.N,/s4*
X123254000Y-83020700D03*
G04 #@! TO.P,J3,7*
G04 #@! TO.N,/an10*
X122254000Y-84020700D03*
G04 #@! TO.P,J3,8*
G04 #@! TO.N,Net-(J3-Pad8)*
X123254000Y-84020700D03*
G04 #@! TO.P,J3,9*
G04 #@! TO.N,Net-(J3-Pad9)*
X122254000Y-85020700D03*
G04 #@! TO.P,J3,10*
G04 #@! TO.N,Net-(J3-Pad10)*
X123254000Y-85020700D03*
G04 #@! TO.P,J3,11*
G04 #@! TO.N,Net-(J3-Pad11)*
X122254000Y-86020700D03*
G04 #@! TO.P,J3,12*
G04 #@! TO.N,/an0*
X123254000Y-86020700D03*
G04 #@! TO.P,J3,13*
G04 #@! TO.N,/an1*
X122254000Y-87020700D03*
G04 #@! TO.P,J3,14*
G04 #@! TO.N,/an2*
X123254000Y-87020700D03*
G04 #@! TO.P,J3,15*
G04 #@! TO.N,/ch4*
X122254000Y-88020700D03*
G04 #@! TO.P,J3,16*
G04 #@! TO.N,/ch3*
X123254000Y-88020700D03*
G04 #@! TO.P,J3,17*
G04 #@! TO.N,/ch2*
X122254000Y-89020700D03*
G04 #@! TO.P,J3,18*
G04 #@! TO.N,/ch1*
X123254000Y-89020700D03*
G04 #@! TO.P,J3,19*
G04 #@! TO.N,GND*
X122254000Y-90020700D03*
G04 #@! TO.P,J3,20*
G04 #@! TO.N,/vcc5v*
X123254000Y-90020700D03*
G04 #@! TD*
G04 #@! TO.P,J4,20*
G04 #@! TO.N,GND*
X165864000Y-90020700D03*
G04 #@! TO.P,J4,19*
G04 #@! TO.N,/s0*
X164864000Y-90020700D03*
G04 #@! TO.P,J4,18*
G04 #@! TO.N,/s1*
X165864000Y-89020700D03*
G04 #@! TO.P,J4,17*
G04 #@! TO.N,Net-(J4-Pad17)*
X164864000Y-89020700D03*
G04 #@! TO.P,J4,16*
G04 #@! TO.N,Net-(J4-Pad16)*
X165864000Y-88020700D03*
G04 #@! TO.P,J4,15*
G04 #@! TO.N,Net-(J4-Pad15)*
X164864000Y-88020700D03*
G04 #@! TO.P,J4,14*
G04 #@! TO.N,Net-(J4-Pad14)*
X165864000Y-87020700D03*
G04 #@! TO.P,J4,13*
G04 #@! TO.N,/ch0*
X164864000Y-87020700D03*
G04 #@! TO.P,J4,12*
G04 #@! TO.N,Net-(J4-Pad12)*
X165864000Y-86020700D03*
G04 #@! TO.P,J4,11*
G04 #@! TO.N,Net-(J4-Pad11)*
X164864000Y-86020700D03*
G04 #@! TO.P,J4,10*
G04 #@! TO.N,Net-(J4-Pad10)*
X165864000Y-85020700D03*
G04 #@! TO.P,J4,9*
G04 #@! TO.N,Net-(J4-Pad9)*
X164864000Y-85020700D03*
G04 #@! TO.P,J4,8*
G04 #@! TO.N,/s0*
X165864000Y-84020700D03*
G04 #@! TO.P,J4,7*
G04 #@! TO.N,Net-(J4-Pad7)*
X164864000Y-84020700D03*
G04 #@! TO.P,J4,6*
G04 #@! TO.N,Net-(J4-Pad6)*
X165864000Y-83020700D03*
G04 #@! TO.P,J4,5*
G04 #@! TO.N,Net-(J4-Pad5)*
X164864000Y-83020700D03*
G04 #@! TO.P,J4,4*
G04 #@! TO.N,Net-(J4-Pad4)*
X165864000Y-82020700D03*
G04 #@! TO.P,J4,3*
G04 #@! TO.N,Net-(J4-Pad3)*
X164864000Y-82020700D03*
G04 #@! TO.P,J4,2*
G04 #@! TO.N,Net-(J4-Pad2)*
X165864000Y-81020700D03*
D22*
G04 #@! TO.P,J4,1*
G04 #@! TO.N,Net-(J4-Pad1)*
X164864000Y-81020700D03*
G04 #@! TD*
D20*
G04 #@! TO.P,J5,3*
G04 #@! TO.N,Net-(J5-Pad3)*
X123000000Y-146000000D03*
G04 #@! TO.P,J5,2*
G04 #@! TO.N,Net-(J5-Pad2)*
X119500000Y-146000000D03*
D21*
G04 #@! TO.P,J5,1*
G04 #@! TO.N,Net-(J5-Pad1)*
X116000000Y-146000000D03*
G04 #@! TD*
G04 #@! TO.P,J6,1*
G04 #@! TO.N,Net-(J6-Pad1)*
X137000000Y-146000000D03*
D20*
G04 #@! TO.P,J6,2*
G04 #@! TO.N,Net-(J6-Pad2)*
X140500000Y-146000000D03*
G04 #@! TO.P,J6,3*
G04 #@! TO.N,Net-(J6-Pad3)*
X144000000Y-146000000D03*
G04 #@! TD*
D21*
G04 #@! TO.P,J7,1*
G04 #@! TO.N,/ch0*
X96300000Y-54040000D03*
D20*
G04 #@! TO.P,J7,2*
G04 #@! TO.N,/ch1*
X92800000Y-54040000D03*
G04 #@! TO.P,J7,3*
G04 #@! TO.N,/ch2*
X89300000Y-54040000D03*
G04 #@! TO.P,J7,4*
G04 #@! TO.N,/ch3*
X85800000Y-54040000D03*
G04 #@! TO.P,J7,5*
G04 #@! TO.N,/ch4*
X82300000Y-54040000D03*
G04 #@! TD*
D21*
G04 #@! TO.P,J8,1*
G04 #@! TO.N,Net-(J8-Pad1)*
X156000000Y-146000000D03*
D20*
G04 #@! TO.P,J8,2*
G04 #@! TO.N,Net-(J8-Pad2)*
X159500000Y-146000000D03*
G04 #@! TO.P,J8,3*
G04 #@! TO.N,Net-(J8-Pad3)*
X163000000Y-146000000D03*
G04 #@! TD*
D21*
G04 #@! TO.P,J9,1*
G04 #@! TO.N,/an0*
X113280000Y-54140000D03*
D20*
G04 #@! TO.P,J9,2*
G04 #@! TO.N,/an1*
X109780000Y-54140000D03*
G04 #@! TO.P,J9,3*
G04 #@! TO.N,/an2*
X106280000Y-54140000D03*
G04 #@! TO.P,J9,4*
G04 #@! TO.N,/an10*
X102780000Y-54140000D03*
G04 #@! TD*
D22*
G04 #@! TO.P,J10,1*
G04 #@! TO.N,GND*
X106490000Y-76320000D03*
D23*
G04 #@! TO.P,J10,2*
G04 #@! TO.N,Net-(J10-Pad2)*
X106490000Y-75320000D03*
G04 #@! TO.P,J10,3*
G04 #@! TO.N,/io0*
X107490000Y-76320000D03*
G04 #@! TO.P,J10,4*
G04 #@! TO.N,/rx*
X107490000Y-75320000D03*
G04 #@! TO.P,J10,5*
G04 #@! TO.N,/vcc3v3*
X108490000Y-76320000D03*
G04 #@! TO.P,J10,6*
G04 #@! TO.N,/rs*
X108490000Y-75320000D03*
G04 #@! TO.P,J10,7*
G04 #@! TO.N,/en*
X109490000Y-76320000D03*
G04 #@! TO.P,J10,8*
G04 #@! TO.N,/tx*
X109490000Y-75320000D03*
G04 #@! TD*
D24*
G04 #@! TO.P,Q1,2*
G04 #@! TO.N,Net-(Q1-Pad2)*
X86270000Y-110000000D03*
G04 #@! TO.P,Q1,3*
G04 #@! TO.N,Net-(D1-Pad2)*
X87540000Y-110000000D03*
D25*
G04 #@! TO.P,Q1,1*
G04 #@! TO.N,Net-(Q1-Pad1)*
X85000000Y-110000000D03*
G04 #@! TD*
D24*
G04 #@! TO.P,Q2,2*
G04 #@! TO.N,Net-(Q2-Pad2)*
X106000000Y-109000000D03*
G04 #@! TO.P,Q2,3*
G04 #@! TO.N,Net-(D3-Pad2)*
X107270000Y-109000000D03*
D25*
G04 #@! TO.P,Q2,1*
G04 #@! TO.N,Net-(Q2-Pad1)*
X104730000Y-109000000D03*
G04 #@! TD*
G04 #@! TO.P,Q3,1*
G04 #@! TO.N,Net-(Q3-Pad1)*
X124000000Y-109000000D03*
D24*
G04 #@! TO.P,Q3,3*
G04 #@! TO.N,Net-(D6-Pad2)*
X126540000Y-109000000D03*
G04 #@! TO.P,Q3,2*
G04 #@! TO.N,Net-(Q3-Pad2)*
X125270000Y-109000000D03*
G04 #@! TD*
D25*
G04 #@! TO.P,Q4,1*
G04 #@! TO.N,Net-(Q4-Pad1)*
X144500000Y-108500000D03*
D24*
G04 #@! TO.P,Q4,3*
G04 #@! TO.N,Net-(D8-Pad2)*
X147040000Y-108500000D03*
G04 #@! TO.P,Q4,2*
G04 #@! TO.N,Net-(Q4-Pad2)*
X145770000Y-108500000D03*
G04 #@! TD*
G04 #@! TO.P,Q5,2*
G04 #@! TO.N,Net-(Q5-Pad2)*
X165770000Y-109000000D03*
G04 #@! TO.P,Q5,3*
G04 #@! TO.N,Net-(D10-Pad2)*
X167040000Y-109000000D03*
D25*
G04 #@! TO.P,Q5,1*
G04 #@! TO.N,Net-(Q5-Pad1)*
X164500000Y-109000000D03*
G04 #@! TD*
D26*
G04 #@! TO.P,R1,2*
G04 #@! TO.N,/s0*
X78080000Y-111000000D03*
D27*
G04 #@! TO.P,R1,1*
G04 #@! TO.N,Net-(Q1-Pad2)*
X73000000Y-111000000D03*
G04 #@! TD*
G04 #@! TO.P,R2,1*
G04 #@! TO.N,Net-(Q1-Pad2)*
X73000000Y-114000000D03*
D26*
G04 #@! TO.P,R2,2*
G04 #@! TO.N,GND*
X78080000Y-114000000D03*
G04 #@! TD*
G04 #@! TO.P,R3,2*
G04 #@! TO.N,/s3*
X99580000Y-113500000D03*
D27*
G04 #@! TO.P,R3,1*
G04 #@! TO.N,Net-(Q2-Pad2)*
X94500000Y-113500000D03*
G04 #@! TD*
G04 #@! TO.P,R4,1*
G04 #@! TO.N,Net-(Q2-Pad2)*
X94500000Y-116500000D03*
D26*
G04 #@! TO.P,R4,2*
G04 #@! TO.N,GND*
X99580000Y-116500000D03*
G04 #@! TD*
G04 #@! TO.P,R5,2*
G04 #@! TO.N,Net-(D2-Pad2)*
X78080000Y-117000000D03*
D27*
G04 #@! TO.P,R5,1*
G04 #@! TO.N,Net-(Q1-Pad1)*
X73000000Y-117000000D03*
G04 #@! TD*
D26*
G04 #@! TO.P,R6,2*
G04 #@! TO.N,Net-(D4-Pad2)*
X99080000Y-110500000D03*
D27*
G04 #@! TO.P,R6,1*
G04 #@! TO.N,Net-(Q2-Pad1)*
X94000000Y-110500000D03*
G04 #@! TD*
G04 #@! TO.P,R7,1*
G04 #@! TO.N,Net-(D5-Pad1)*
X96060000Y-85560000D03*
D26*
G04 #@! TO.P,R7,2*
G04 #@! TO.N,GND*
X90980000Y-85560000D03*
G04 #@! TD*
D27*
G04 #@! TO.P,R8,1*
G04 #@! TO.N,Net-(Q3-Pad2)*
X112500000Y-111000000D03*
D26*
G04 #@! TO.P,R8,2*
G04 #@! TO.N,/s4*
X117580000Y-111000000D03*
G04 #@! TD*
D27*
G04 #@! TO.P,R9,1*
G04 #@! TO.N,Net-(Q3-Pad2)*
X112500000Y-114000000D03*
D26*
G04 #@! TO.P,R9,2*
G04 #@! TO.N,GND*
X117580000Y-114000000D03*
G04 #@! TD*
G04 #@! TO.P,R10,2*
G04 #@! TO.N,/s1*
X138080000Y-113000000D03*
D27*
G04 #@! TO.P,R10,1*
G04 #@! TO.N,Net-(Q4-Pad2)*
X133000000Y-113000000D03*
G04 #@! TD*
G04 #@! TO.P,R11,1*
G04 #@! TO.N,Net-(Q4-Pad2)*
X133000000Y-116000000D03*
D26*
G04 #@! TO.P,R11,2*
G04 #@! TO.N,GND*
X138080000Y-116000000D03*
G04 #@! TD*
G04 #@! TO.P,R12,2*
G04 #@! TO.N,Net-(D7-Pad2)*
X117580000Y-117500000D03*
D27*
G04 #@! TO.P,R12,1*
G04 #@! TO.N,Net-(Q3-Pad1)*
X112500000Y-117500000D03*
G04 #@! TD*
D26*
G04 #@! TO.P,R13,2*
G04 #@! TO.N,Net-(D9-Pad2)*
X138080000Y-110500000D03*
D27*
G04 #@! TO.P,R13,1*
G04 #@! TO.N,Net-(Q4-Pad1)*
X133000000Y-110500000D03*
G04 #@! TD*
G04 #@! TO.P,R14,1*
G04 #@! TO.N,Net-(Q5-Pad2)*
X152000000Y-117000000D03*
D26*
G04 #@! TO.P,R14,2*
G04 #@! TO.N,/s2*
X157080000Y-117000000D03*
G04 #@! TD*
G04 #@! TO.P,R15,2*
G04 #@! TO.N,GND*
X157080000Y-110500000D03*
D27*
G04 #@! TO.P,R15,1*
G04 #@! TO.N,Net-(Q5-Pad2)*
X152000000Y-110500000D03*
G04 #@! TD*
G04 #@! TO.P,R16,1*
G04 #@! TO.N,Net-(Q5-Pad1)*
X152000000Y-113500000D03*
D26*
G04 #@! TO.P,R16,2*
G04 #@! TO.N,Net-(D11-Pad2)*
X157080000Y-113500000D03*
G04 #@! TD*
G04 #@! TO.P,R17,2*
G04 #@! TO.N,/io0*
X95910000Y-89020000D03*
D27*
G04 #@! TO.P,R17,1*
G04 #@! TO.N,/vcc3v3*
X90830000Y-89020000D03*
G04 #@! TD*
G04 #@! TO.P,R18,1*
G04 #@! TO.N,Net-(R18-Pad1)*
X90960000Y-95340000D03*
D26*
G04 #@! TO.P,R18,2*
G04 #@! TO.N,GND*
X96040000Y-95340000D03*
G04 #@! TD*
D27*
G04 #@! TO.P,R19,1*
G04 #@! TO.N,/vcc3v3*
X90960000Y-92180000D03*
D26*
G04 #@! TO.P,R19,2*
G04 #@! TO.N,/rs*
X96040000Y-92180000D03*
G04 #@! TD*
G04 #@! TO.P,R20,2*
G04 #@! TO.N,/en*
X96040000Y-98630000D03*
D27*
G04 #@! TO.P,R20,1*
G04 #@! TO.N,/vcc3v3*
X90960000Y-98630000D03*
G04 #@! TD*
D28*
G04 #@! TO.P,reg1,1*
G04 #@! TO.N,GND*
X85680000Y-80890000D03*
D29*
G04 #@! TO.P,reg1,2*
G04 #@! TO.N,/vcc3v3*
X80230000Y-80890000D03*
G04 #@! TO.P,reg1,3*
G04 #@! TO.N,/vcc5v*
X74780000Y-80890000D03*
G04 #@! TD*
D30*
G04 #@! TO.P,relay1,2*
G04 #@! TO.N,Net-(D1-Pad2)*
X73950000Y-123950000D03*
D18*
G04 #@! TO.P,relay1,3*
G04 #@! TO.N,Net-(J1-Pad1)*
X73950000Y-136150000D03*
G04 #@! TO.P,relay1,4*
G04 #@! TO.N,Net-(J1-Pad3)*
X86000000Y-136200000D03*
D30*
G04 #@! TO.P,relay1,5*
G04 #@! TO.N,/vcc5v*
X85950000Y-123950000D03*
D18*
G04 #@! TO.P,relay1,1*
G04 #@! TO.N,Net-(J1-Pad2)*
X80000000Y-122000000D03*
G04 #@! TD*
G04 #@! TO.P,relay2,1*
G04 #@! TO.N,Net-(J2-Pad2)*
X100000000Y-122000000D03*
D30*
G04 #@! TO.P,relay2,5*
G04 #@! TO.N,/vcc5v*
X105950000Y-123950000D03*
D18*
G04 #@! TO.P,relay2,4*
G04 #@! TO.N,Net-(J2-Pad3)*
X106000000Y-136200000D03*
G04 #@! TO.P,relay2,3*
G04 #@! TO.N,Net-(J2-Pad1)*
X93950000Y-136150000D03*
D30*
G04 #@! TO.P,relay2,2*
G04 #@! TO.N,Net-(D3-Pad2)*
X93950000Y-123950000D03*
G04 #@! TD*
D18*
G04 #@! TO.P,relay3,1*
G04 #@! TO.N,Net-(J5-Pad2)*
X120000000Y-122000000D03*
D30*
G04 #@! TO.P,relay3,5*
G04 #@! TO.N,/vcc5v*
X125950000Y-123950000D03*
D18*
G04 #@! TO.P,relay3,4*
G04 #@! TO.N,Net-(J5-Pad3)*
X126000000Y-136200000D03*
G04 #@! TO.P,relay3,3*
G04 #@! TO.N,Net-(J5-Pad1)*
X113950000Y-136150000D03*
D30*
G04 #@! TO.P,relay3,2*
G04 #@! TO.N,Net-(D6-Pad2)*
X113950000Y-123950000D03*
G04 #@! TD*
G04 #@! TO.P,relay4,2*
G04 #@! TO.N,Net-(D8-Pad2)*
X133950000Y-123950000D03*
D18*
G04 #@! TO.P,relay4,3*
G04 #@! TO.N,Net-(J6-Pad1)*
X133950000Y-136150000D03*
G04 #@! TO.P,relay4,4*
G04 #@! TO.N,Net-(J6-Pad3)*
X146000000Y-136200000D03*
D30*
G04 #@! TO.P,relay4,5*
G04 #@! TO.N,/vcc5v*
X145950000Y-123950000D03*
D18*
G04 #@! TO.P,relay4,1*
G04 #@! TO.N,Net-(J6-Pad2)*
X140000000Y-122000000D03*
G04 #@! TD*
D30*
G04 #@! TO.P,relay5,2*
G04 #@! TO.N,Net-(D10-Pad2)*
X153950000Y-123950000D03*
D18*
G04 #@! TO.P,relay5,3*
G04 #@! TO.N,Net-(J8-Pad1)*
X153950000Y-136150000D03*
G04 #@! TO.P,relay5,4*
G04 #@! TO.N,Net-(J8-Pad3)*
X166000000Y-136200000D03*
D30*
G04 #@! TO.P,relay5,5*
G04 #@! TO.N,/vcc5v*
X165950000Y-123950000D03*
D18*
G04 #@! TO.P,relay5,1*
G04 #@! TO.N,Net-(J8-Pad2)*
X160000000Y-122000000D03*
G04 #@! TD*
D31*
G04 #@! TO.P,SW1,1*
G04 #@! TO.N,Net-(R18-Pad1)*
X82020000Y-96720000D03*
G04 #@! TO.P,SW1,2*
G04 #@! TO.N,/io0*
X82020000Y-101220000D03*
G04 #@! TO.P,SW1,1*
G04 #@! TO.N,Net-(R18-Pad1)*
X75520000Y-96720000D03*
G04 #@! TO.P,SW1,2*
G04 #@! TO.N,/io0*
X75520000Y-101220000D03*
G04 #@! TD*
G04 #@! TO.P,SW2,2*
G04 #@! TO.N,/rs*
X75190000Y-92560000D03*
G04 #@! TO.P,SW2,1*
G04 #@! TO.N,GND*
X75190000Y-88060000D03*
G04 #@! TO.P,SW2,2*
G04 #@! TO.N,/rs*
X81690000Y-92560000D03*
G04 #@! TO.P,SW2,1*
G04 #@! TO.N,GND*
X81690000Y-88060000D03*
G04 #@! TD*
D32*
G04 #@! TO.N,/s3*
X117952400Y-87248400D03*
G04 #@! TO.N,/an0*
X122322200Y-78512300D03*
G04 #@! TO.N,/an2*
X120348700Y-76205600D03*
G04 #@! TO.N,/tx*
X113592300Y-79385800D03*
G04 #@! TD*
D33*
G04 #@! TO.N,/vcc5v*
X74225300Y-106902700D02*
X73937700Y-106902700D01*
X73937700Y-106902700D02*
X73864600Y-106829600D01*
X73864600Y-106829600D02*
X73864600Y-84380700D01*
X73864600Y-84380700D02*
X74780000Y-83465300D01*
X91774700Y-106500000D02*
X91049400Y-105774700D01*
X91049400Y-105774700D02*
X75353300Y-105774700D01*
X75353300Y-105774700D02*
X74225300Y-106902700D01*
X74225300Y-106902700D02*
X74225300Y-107000000D01*
X74780000Y-80890000D02*
X74780000Y-83465300D01*
X105950000Y-123950000D02*
X104352100Y-125547900D01*
X104352100Y-125547900D02*
X87547900Y-125547900D01*
X87547900Y-125547900D02*
X85950000Y-123950000D01*
X73000000Y-107000000D02*
X74225300Y-107000000D01*
X93000000Y-106500000D02*
X91774700Y-106500000D01*
X145950000Y-123950000D02*
X147527500Y-125527500D01*
X147527500Y-125527500D02*
X164372500Y-125527500D01*
X164372500Y-125527500D02*
X165950000Y-123950000D01*
X84040000Y-64620000D02*
X81964700Y-64620000D01*
X73520000Y-74470000D02*
X73520000Y-73064700D01*
X73520000Y-73064700D02*
X81964700Y-64620000D01*
X151000000Y-106500000D02*
X149774700Y-106500000D01*
X132500000Y-106500000D02*
X133725300Y-106500000D01*
X133725300Y-106500000D02*
X134950600Y-105274700D01*
X134950600Y-105274700D02*
X148549400Y-105274700D01*
X148549400Y-105274700D02*
X149774700Y-106500000D01*
X131887400Y-106500000D02*
X132500000Y-106500000D01*
X131887400Y-106500000D02*
X131274700Y-106500000D01*
X112000000Y-107000000D02*
X113225300Y-107000000D01*
X131274700Y-106500000D02*
X130549400Y-105774700D01*
X130549400Y-105774700D02*
X114450600Y-105774700D01*
X114450600Y-105774700D02*
X113225300Y-107000000D01*
G04 #@! TO.N,GND*
X122254000Y-90020700D02*
X121503700Y-90020700D01*
X96040000Y-95340000D02*
X116184400Y-95340000D01*
X116184400Y-95340000D02*
X121503700Y-90020700D01*
X90980000Y-80890000D02*
X90990100Y-80890000D01*
X90990100Y-80890000D02*
X92790000Y-79090100D01*
X92790000Y-79090100D02*
X92790000Y-78930000D01*
X85680000Y-80890000D02*
X90980000Y-80890000D01*
X90980000Y-80890000D02*
X90980000Y-85560000D01*
X92790000Y-73170000D02*
X92790000Y-72980900D01*
X92790000Y-72980900D02*
X89129100Y-69320000D01*
X89129100Y-69320000D02*
X81040000Y-69320000D01*
X106490000Y-76320000D02*
X95940000Y-76320000D01*
X95940000Y-76320000D02*
X92790000Y-73170000D01*
X117580000Y-114000000D02*
X116554700Y-114000000D01*
X116554700Y-114000000D02*
X116554700Y-114897100D01*
X116554700Y-114897100D02*
X112926500Y-118525300D01*
X112926500Y-118525300D02*
X107291100Y-118525300D01*
X107291100Y-118525300D02*
X105225300Y-116459500D01*
X105225300Y-116459500D02*
X105225300Y-116000000D01*
X117580000Y-114000000D02*
X120274700Y-114000000D01*
X120274700Y-114000000D02*
X122274700Y-116000000D01*
X104000000Y-116000000D02*
X105225300Y-116000000D01*
X123500000Y-116000000D02*
X124725300Y-116000000D01*
X138080000Y-116000000D02*
X137054700Y-116000000D01*
X137054700Y-116000000D02*
X135829400Y-114774700D01*
X135829400Y-114774700D02*
X125491000Y-114774700D01*
X125491000Y-114774700D02*
X124725300Y-115540400D01*
X124725300Y-115540400D02*
X124725300Y-116000000D01*
X141774700Y-115000000D02*
X140774700Y-116000000D01*
X140774700Y-116000000D02*
X138080000Y-116000000D01*
X86000000Y-114000000D02*
X87225300Y-114000000D01*
X99580000Y-116500000D02*
X98554700Y-116500000D01*
X98554700Y-116500000D02*
X97280000Y-115225300D01*
X97280000Y-115225300D02*
X88450600Y-115225300D01*
X88450600Y-115225300D02*
X87225300Y-114000000D01*
X102774700Y-116000000D02*
X102274700Y-116500000D01*
X102274700Y-116500000D02*
X99580000Y-116500000D01*
X156026200Y-113946100D02*
X157580100Y-115500000D01*
X157580100Y-115500000D02*
X164000000Y-115500000D01*
X157080000Y-111525300D02*
X156026200Y-112579100D01*
X156026200Y-112579100D02*
X156026200Y-113946100D01*
X156026200Y-113946100D02*
X154638100Y-115334200D01*
X154638100Y-115334200D02*
X150974600Y-115334200D01*
X150974600Y-115334200D02*
X150083500Y-116225300D01*
X150083500Y-116225300D02*
X144991000Y-116225300D01*
X144991000Y-116225300D02*
X144225300Y-115459600D01*
X144225300Y-115459600D02*
X144225300Y-115000000D01*
X143000000Y-115000000D02*
X144225300Y-115000000D01*
X157080000Y-110500000D02*
X157080000Y-111525300D01*
X78080000Y-114000000D02*
X86000000Y-114000000D01*
X104000000Y-116000000D02*
X102774700Y-116000000D01*
X123500000Y-116000000D02*
X122274700Y-116000000D01*
X143000000Y-115000000D02*
X141774700Y-115000000D01*
G04 #@! TO.N,/vcc3v3*
X108490000Y-76957700D02*
X108944100Y-77411800D01*
X108944100Y-77411800D02*
X117894800Y-77411800D01*
X117894800Y-77411800D02*
X121503700Y-81020700D01*
X122254000Y-81020700D02*
X121503700Y-81020700D01*
X108490000Y-76957700D02*
X108377400Y-77070300D01*
X108377400Y-77070300D02*
X93149700Y-77070300D01*
X93149700Y-77070300D02*
X91290000Y-78930000D01*
X108490000Y-76320000D02*
X108490000Y-76957700D01*
G04 #@! TO.N,Net-(D3-Pad2)*
X100620000Y-106500000D02*
X101845300Y-106500000D01*
X107270000Y-109000000D02*
X107270000Y-107924700D01*
X107270000Y-107924700D02*
X103270000Y-107924700D01*
X103270000Y-107924700D02*
X101845300Y-106500000D01*
G04 #@! TO.N,Net-(D4-Pad2)*
X99080000Y-110500000D02*
X101040000Y-110500000D01*
X101040000Y-110500000D02*
X106540000Y-116000000D01*
G04 #@! TO.N,Net-(D6-Pad2)*
X126540000Y-107924700D02*
X125615300Y-107000000D01*
X125615300Y-107000000D02*
X120845300Y-107000000D01*
X119620000Y-107000000D02*
X120845300Y-107000000D01*
X126540000Y-109000000D02*
X126540000Y-107924700D01*
G04 #@! TO.N,Net-(D7-Pad2)*
X117580000Y-117500000D02*
X124540000Y-117500000D01*
X124540000Y-117500000D02*
X126040000Y-116000000D01*
G04 #@! TO.N,Net-(D8-Pad2)*
X140120000Y-106500000D02*
X141345300Y-106500000D01*
X147040000Y-108500000D02*
X147040000Y-107424700D01*
X147040000Y-107424700D02*
X142270000Y-107424700D01*
X142270000Y-107424700D02*
X141345300Y-106500000D01*
G04 #@! TO.N,Net-(D9-Pad2)*
X138080000Y-110500000D02*
X138080000Y-111525300D01*
X138080000Y-111525300D02*
X137041200Y-112564100D01*
X137041200Y-112564100D02*
X137041200Y-113435400D01*
X137041200Y-113435400D02*
X137671000Y-114065200D01*
X137671000Y-114065200D02*
X138814800Y-114065200D01*
X138814800Y-114065200D02*
X139105400Y-113774600D01*
X139105400Y-113774600D02*
X144314600Y-113774600D01*
X144314600Y-113774600D02*
X145540000Y-115000000D01*
G04 #@! TO.N,Net-(D11-Pad2)*
X157080000Y-113500000D02*
X164540000Y-113500000D01*
X164540000Y-113500000D02*
X166540000Y-115500000D01*
G04 #@! TO.N,/s1*
X165864000Y-89020700D02*
X166614300Y-89020700D01*
X138080000Y-113000000D02*
X146774300Y-113000000D01*
X146774300Y-113000000D02*
X166614300Y-93160000D01*
X166614300Y-93160000D02*
X166614300Y-89020700D01*
G04 #@! TO.N,/s3*
X122254000Y-83020700D02*
X121503700Y-83020700D01*
X117952400Y-87248400D02*
X121503700Y-83697100D01*
X121503700Y-83697100D02*
X121503700Y-83020700D01*
G04 #@! TO.N,/an0*
X122322200Y-78512300D02*
X122554100Y-78512300D01*
X122554100Y-78512300D02*
X124489400Y-80447600D01*
X124489400Y-80447600D02*
X124489400Y-85535600D01*
X124489400Y-85535600D02*
X124004300Y-86020700D01*
X123254000Y-86020700D02*
X124004300Y-86020700D01*
G04 #@! TO.N,/an2*
X123254000Y-87020700D02*
X124004300Y-87020700D01*
X120348700Y-76205600D02*
X121041300Y-76205600D01*
X121041300Y-76205600D02*
X124939700Y-80104000D01*
X124939700Y-80104000D02*
X124939700Y-86085300D01*
X124939700Y-86085300D02*
X124004300Y-87020700D01*
G04 #@! TO.N,/ch3*
X85800000Y-54040000D02*
X99485500Y-67725500D01*
X99485500Y-67725500D02*
X113198100Y-67725500D01*
X113198100Y-67725500D02*
X125390000Y-79917400D01*
X125390000Y-79917400D02*
X125390000Y-86635000D01*
X125390000Y-86635000D02*
X124004300Y-88020700D01*
X123254000Y-88020700D02*
X124004300Y-88020700D01*
G04 #@! TO.N,/ch1*
X123254000Y-89020700D02*
X124004300Y-89020700D01*
X92800000Y-54040000D02*
X95414300Y-56654300D01*
X95414300Y-56654300D02*
X102768000Y-56654300D01*
X102768000Y-56654300D02*
X125898300Y-79784600D01*
X125898300Y-79784600D02*
X125898300Y-87126700D01*
X125898300Y-87126700D02*
X124004300Y-89020700D01*
G04 #@! TO.N,/s0*
X164864000Y-90020700D02*
X164113700Y-90020700D01*
X78080000Y-111000000D02*
X81363100Y-111000000D01*
X81363100Y-111000000D02*
X84451000Y-107912100D01*
X84451000Y-107912100D02*
X95424600Y-107912100D01*
X95424600Y-107912100D02*
X98512400Y-104824300D01*
X98512400Y-104824300D02*
X149310100Y-104824300D01*
X149310100Y-104824300D02*
X164113700Y-90020700D01*
G04 #@! TO.N,/ch0*
X164864000Y-87020700D02*
X164113700Y-87020700D01*
X96300000Y-54040000D02*
X97825300Y-54040000D01*
X97825300Y-54040000D02*
X99989200Y-56203900D01*
X99989200Y-56203900D02*
X133296900Y-56203900D01*
X133296900Y-56203900D02*
X164113700Y-87020700D01*
G04 #@! TO.N,/rx*
X107490000Y-74569700D02*
X117277100Y-74569700D01*
X117277100Y-74569700D02*
X121945000Y-79237600D01*
X121945000Y-79237600D02*
X122532100Y-79237600D01*
X122532100Y-79237600D02*
X124004300Y-80709800D01*
X124004300Y-80709800D02*
X124004300Y-82020700D01*
X123254000Y-82020700D02*
X124004300Y-82020700D01*
X107490000Y-75320000D02*
X107490000Y-74569700D01*
G04 #@! TO.N,/tx*
X113592300Y-79385800D02*
X116227200Y-82020700D01*
X116227200Y-82020700D02*
X122254000Y-82020700D01*
G04 #@! TO.N,/io0*
X82020000Y-101220000D02*
X86255000Y-96985000D01*
X86255000Y-96985000D02*
X92685100Y-96985000D01*
X92685100Y-96985000D02*
X97085200Y-92584900D01*
X97085200Y-92584900D02*
X97085200Y-91220500D01*
X97085200Y-91220500D02*
X95910000Y-90045300D01*
X75520000Y-101220000D02*
X82020000Y-101220000D01*
X95910000Y-89020000D02*
X95910000Y-90045300D01*
G04 #@! TO.N,/rs*
X96040000Y-92180000D02*
X95014700Y-92180000D01*
X81690000Y-92560000D02*
X82335300Y-93205300D01*
X82335300Y-93205300D02*
X93989400Y-93205300D01*
X93989400Y-93205300D02*
X95014700Y-92180000D01*
X75190000Y-92560000D02*
X81690000Y-92560000D01*
G04 #@! TO.N,Net-(Q1-Pad2)*
X74025400Y-112025400D02*
X81106600Y-112025400D01*
X81106600Y-112025400D02*
X84207300Y-108924700D01*
X84207300Y-108924700D02*
X86270000Y-108924700D01*
X73000000Y-111000000D02*
X74025400Y-112025400D01*
X73000000Y-114000000D02*
X74025400Y-112974600D01*
X74025400Y-112974600D02*
X74025400Y-112025400D01*
X86270000Y-110000000D02*
X86270000Y-108924700D01*
G04 #@! TO.N,Net-(Q1-Pad1)*
X85000000Y-110000000D02*
X84149700Y-110000000D01*
X73000000Y-117000000D02*
X77500000Y-112500000D01*
X77500000Y-112500000D02*
X81649700Y-112500000D01*
X81649700Y-112500000D02*
X84149700Y-110000000D01*
G04 #@! TO.N,Net-(Q2-Pad1)*
X94000000Y-110500000D02*
X95500000Y-109000000D01*
X95500000Y-109000000D02*
X104730000Y-109000000D01*
G04 #@! TO.N,Net-(Q2-Pad2)*
X106000000Y-109000000D02*
X106000000Y-110075300D01*
X94500000Y-113500000D02*
X98549600Y-109450400D01*
X98549600Y-109450400D02*
X100627300Y-109450400D01*
X100627300Y-109450400D02*
X101252200Y-110075300D01*
X101252200Y-110075300D02*
X106000000Y-110075300D01*
G04 #@! TO.N,Net-(Q3-Pad2)*
X125270000Y-109000000D02*
X125270000Y-107924700D01*
X112500000Y-111000000D02*
X113525400Y-109974600D01*
X113525400Y-109974600D02*
X119720100Y-109974600D01*
X119720100Y-109974600D02*
X121770000Y-107924700D01*
X121770000Y-107924700D02*
X125270000Y-107924700D01*
G04 #@! TO.N,Net-(Q3-Pad1)*
X124000000Y-109000000D02*
X123149700Y-109000000D01*
X112500000Y-117500000D02*
X112500000Y-117395800D01*
X112500000Y-117395800D02*
X117245000Y-112650800D01*
X117245000Y-112650800D02*
X119498900Y-112650800D01*
X119498900Y-112650800D02*
X123149700Y-109000000D01*
G04 #@! TO.N,Net-(Q4-Pad1)*
X133000000Y-110500000D02*
X135000000Y-108500000D01*
X135000000Y-108500000D02*
X144500000Y-108500000D01*
G04 #@! TO.N,Net-(Q4-Pad2)*
X145770000Y-108500000D02*
X145770000Y-109575300D01*
X133000000Y-113000000D02*
X136555200Y-109444800D01*
X136555200Y-109444800D02*
X138974800Y-109444800D01*
X138974800Y-109444800D02*
X139105300Y-109575300D01*
X139105300Y-109575300D02*
X145770000Y-109575300D01*
G04 #@! TO.N,Net-(Q5-Pad2)*
X165770000Y-109000000D02*
X165770000Y-107924700D01*
X152000000Y-110500000D02*
X154575300Y-107924700D01*
X154575300Y-107924700D02*
X165770000Y-107924700D01*
G04 #@! TO.N,Net-(Q5-Pad1)*
X152000000Y-113500000D02*
X156500000Y-109000000D01*
X156500000Y-109000000D02*
X164500000Y-109000000D01*
G04 #@! TO.N,Net-(D2-Pad2)*
X78080000Y-117000000D02*
X85540000Y-117000000D01*
X85540000Y-117000000D02*
X86000000Y-116540000D01*
G04 #@! TO.N,Net-(D5-Pad1)*
X76060000Y-74470000D02*
X77285300Y-74470000D01*
X96060000Y-85560000D02*
X95029100Y-86590900D01*
X95029100Y-86590900D02*
X87391700Y-86590900D01*
X87391700Y-86590900D02*
X82559600Y-81758800D01*
X82559600Y-81758800D02*
X82559600Y-79744300D01*
X82559600Y-79744300D02*
X77285300Y-74470000D01*
G04 #@! TO.N,Net-(R18-Pad1)*
X82020000Y-96720000D02*
X83400000Y-95340000D01*
X83400000Y-95340000D02*
X90960000Y-95340000D01*
X75520000Y-96720000D02*
X82020000Y-96720000D01*
G04 #@! TD*
M02*
