M48
;DRILL file {KiCad 5.0.2-bee76a0~70~ubuntu18.04.1} date Sat 18 May 2019 08:34:59 PM EAT
;FORMAT={-:-/ absolute / metric / decimal}
FMAT,2
METRIC,TZ
T1C0.400
T2C0.500
T3C0.600
T4C0.700
T5C0.750
T6C0.900
T7C1.000
T8C1.100
T9C1.200
T10C1.300
T11C1.500
%
G90
G05
T1
X113.592Y-79.386
X117.952Y-87.248
X120.349Y-76.206
X122.322Y-78.512
T2
X106.49Y-75.32
X106.49Y-76.32
X107.49Y-75.32
X107.49Y-76.32
X108.49Y-75.32
X108.49Y-76.32
X109.49Y-75.32
X109.49Y-76.32
X164.864Y-81.021
X164.864Y-82.021
X164.864Y-83.021
X164.864Y-84.021
X164.864Y-85.021
X164.864Y-86.021
X164.864Y-87.021
X164.864Y-88.021
X164.864Y-89.021
X164.864Y-90.021
X165.864Y-81.021
X165.864Y-82.021
X165.864Y-83.021
X165.864Y-84.021
X165.864Y-85.021
X165.864Y-86.021
X165.864Y-87.021
X165.864Y-88.021
X165.864Y-89.021
X165.864Y-90.021
X122.254Y-81.021
X122.254Y-82.021
X122.254Y-83.021
X122.254Y-84.021
X122.254Y-85.021
X122.254Y-86.021
X122.254Y-87.021
X122.254Y-88.021
X122.254Y-89.021
X122.254Y-90.021
X123.254Y-81.021
X123.254Y-82.021
X123.254Y-83.021
X123.254Y-84.021
X123.254Y-85.021
X123.254Y-86.021
X123.254Y-87.021
X123.254Y-88.021
X123.254Y-89.021
X123.254Y-90.021
T3
X91.29Y-78.93
X92.79Y-78.93
X91.29Y-73.17
X92.79Y-73.17
T4
X90.96Y-98.63
X96.04Y-98.63
X73.Y-117.
X78.08Y-117.
X152.Y-117.
X157.08Y-117.
X112.5Y-117.5
X117.58Y-117.5
X90.83Y-89.02
X95.91Y-89.02
X94.Y-110.5
X99.08Y-110.5
X112.5Y-114.
X117.58Y-114.
X152.Y-110.5
X157.08Y-110.5
X90.96Y-92.18
X96.04Y-92.18
X133.Y-116.
X138.08Y-116.
X152.Y-113.5
X157.08Y-113.5
X94.5Y-113.5
X99.58Y-113.5
X73.Y-114.
X78.08Y-114.
X112.5Y-111.
X117.58Y-111.
X133.Y-110.5
X138.08Y-110.5
X133.Y-113.
X138.08Y-113.
X94.5Y-116.5
X99.58Y-116.5
X73.Y-111.
X78.08Y-111.
X90.96Y-95.34
X96.04Y-95.34
X90.98Y-85.56
X96.06Y-85.56
T5
X85.Y-110.
X86.27Y-110.
X87.54Y-110.
X104.73Y-109.
X106.Y-109.
X107.27Y-109.
X124.Y-109.
X125.27Y-109.
X126.54Y-109.
X164.5Y-109.
X165.77Y-109.
X167.04Y-109.
X144.5Y-108.5
X145.77Y-108.5
X147.04Y-108.5
T6
X143.Y-115.
X145.54Y-115.
X73.Y-107.
X80.62Y-107.
X104.Y-116.
X106.54Y-116.
X164.Y-115.5
X166.54Y-115.5
X132.5Y-106.5
X140.12Y-106.5
X86.Y-114.
X86.Y-116.54
X112.Y-107.
X119.62Y-107.
X151.Y-106.5
X158.62Y-106.5
X93.Y-106.5
X100.62Y-106.5
X123.5Y-116.
X126.04Y-116.
X73.52Y-74.47
X76.06Y-74.47
T7
X133.95Y-123.95
X145.95Y-123.95
X73.95Y-123.95
X85.95Y-123.95
X153.95Y-123.95
X165.95Y-123.95
X113.95Y-123.95
X125.95Y-123.95
X93.95Y-123.95
X105.95Y-123.95
T8
X75.19Y-88.06
X75.19Y-92.56
X81.69Y-88.06
X81.69Y-92.56
X75.52Y-96.72
X75.52Y-101.22
X82.02Y-96.72
X82.02Y-101.22
T9
X156.Y-146.
X159.5Y-146.
X163.Y-146.
X77.Y-146.
X80.5Y-146.
X84.Y-146.
X102.78Y-54.14
X106.28Y-54.14
X109.78Y-54.14
X113.28Y-54.14
X137.Y-146.
X140.5Y-146.
X144.Y-146.
X96.Y-146.
X99.5Y-146.
X103.Y-146.
X82.3Y-54.04
X85.8Y-54.04
X89.3Y-54.04
X92.8Y-54.04
X96.3Y-54.04
X116.Y-146.
X119.5Y-146.
X123.Y-146.
T10
X133.95Y-136.15
X140.Y-122.
X146.Y-136.2
X73.95Y-136.15
X80.Y-122.
X86.Y-136.2
X153.95Y-136.15
X160.Y-122.
X166.Y-136.2
X113.95Y-136.15
X120.Y-122.
X126.Y-136.2
X93.95Y-136.15
X100.Y-122.
X106.Y-136.2
T11
X74.78Y-80.89
X80.23Y-80.89
X85.68Y-80.89
T7
X78.04Y-63.62G85X78.04Y-65.62
G05
X80.04Y-69.32G85X82.04Y-69.32
G05
X84.04Y-63.62G85X84.04Y-65.62
G05
T0
M30
